<svg version="1.2" xmlns="http://www.w3.org/2000/svg" viewBox="0 0 600 400" width="600" height="400">
	<title>imf-svg</title>
	<style>
		.s0 { fill: #ffffff } 
		.s1 { fill: #0055b8 } 
	</style>
	<path id="Layer 1" class="s0" d="m0 0h600v400h-600z"/>
	<g id="Layer">
		<path id="Layer" fill-rule="evenodd" class="s1" d="m300.8 84.5c30.9 0 60 12 81.9 33.9 21.8 21.9 33.9 50.9 33.9 81.9 0 30.9-12 60-33.9 81.9-21.9 21.8-51 33.9-81.9 33.9-30.9 0-60-12-81.9-33.9-21.8-21.8-33.9-51-33.9-81.9 0-30.9 12-60 33.9-81.9 21.9-21.9 51-34 81.9-33.9zm0 228.5c30.2 0 58.5-11.7 79.8-33 21.3-21.3 33-49.6 33-79.7 0-30.1-11.7-58.4-33-79.7-21.4-21.3-49.7-33-79.8-33-30.1 0-58.4 11.7-79.7 33-21.3 21.3-33 49.6-33 79.7 0 30.1 11.7 58.4 33 79.7 21.3 21.3 49.6 33.1 79.7 33z"/>
		<path id="Layer" class="s1" d="m158.4 195.9l2.7-7.7 2.3 7.7h7.7l-6.3 4.8 2.5 7.6-6.4-4.8-7 5 2.9-8-6.2-4.6z"/>
		<path id="Layer" class="s1" d="m438.2 197.9l2.7-7.7 2.4 7.7h7.7l-6.4 4.9 2.5 7.5-6.4-4.8-6.9 5 2.9-7.9-6.2-4.7z"/>
		<path id="Layer" fill-rule="evenodd" class="s1" d="m202.2 106.1h198.1c0 3.8-0.1 7.6-0.1 11.4q-0.2 19.8-0.3 39.6c-0.1 14.1-0.2 28.1-0.4 42.2-0.1 10.5 0.1 21-1.8 31.3-2.7 15.3-9.4 29.6-19.5 41.5-8.8 10.3-19.8 18.7-31.6 25.2-9.6 5.3-19.9 9.5-30.5 12.7-5.4 1.6-10.9 3-16.4 3.9-0.7 0.1-1.3-0.1-2-0.3-2.6-0.7-5.2-1.5-7.8-2.3-9.8-3.2-19.4-7.1-28.5-11.8-12-6.2-23.4-13.9-33.1-23.5-10.7-10.5-18.9-23.4-23-37.8-2.1-7.4-3.1-15.2-3.1-22.9v-109.4m132.3 179.7c-0.4-0.2-0.9-0.5-1.4-0.6-0.6-0.2-1.3-0.1-1.9-0.2-0.9-0.1-1.7 0.4-2.5 0.4h-2.5c-2.3 0-4.7-0.6-6.9-1.2-1-0.2-1.8-0.8-2.8-1-1.3-0.3-2.4-0.5-3.6-1-2.1-0.8-4.1-1.7-6.2-2.5-1.2-0.4-2.3-0.8-3.4-1.3-1.3-0.5-2.3-0.6-3.7-0.7-2.2-0.2-4.5-0.4-6.7 0-0.7 0.2-1.1 0.2-1.7 0.6-0.5 0.3-0.8 0.2-1.4 0.2-1.2 0-2.5 0.1-3.7-0.2-0.1 0-1.6-0.6-1.1-0.9 0.5-0.3 0.9-0.6 1.5-0.8 1.2-0.4 1.8-1.2 3.1-0.9 0.5 0.1 1 0 1.6 0 0.5 0 1 0.1 1.5 0.1 1.1 0 2.2 0 3.4-0.1 2.3-0.3 4.7-0.4 7-0.8 1.2-0.2 2.4-0.3 3.6-0.6 0.6-0.1 1.2-0.3 1.8-0.4 0.5-0.1 1.2-0.1 1.7-0.3 0.6-0.3 1-0.5 1.7-0.5 0.6 0 1.3 0.1 1.8 0 1.2-0.3 2.3-0.8 3.5-1.1 2.3-0.5 4.5-1.3 6.7-2.1 1.1-0.4 2.2-0.8 3.3-1.3 1.1-0.4 1.9-1.2 2.9-1.8 0.9-0.6 1.9-1.3 3-1.5 1.2-0.3 2.3-0.5 3.4-1.1 1.3-0.8-1.4-1.6-2-1.8-1-0.4-2.2-0.5-3.2-0.4-1.2 0.1-2.4 0.4-3.5 0.4-1.2 0-2.3-0.2-3.5-0.1-1.3 0.1-2.3-0.1-3.6-0.4-1.3-0.3-2.7-0.3-4.1-0.5-2.2-0.4-4.4-0.1-6.6 0-1.3 0-2.6 0.1-3.8 0.2-1.1 0.2-2.5 0.1-3.4 0.5-2.3 1-4.6 2-6.7 3.4-2 1.3-3.8 2.7-5.6 4.2-0.9 0.8-1.6 1.7-2.3 2.6-0.4 0.4-0.8 0.9-1.2 1.3-0.3 0.4-0.9 0.6-1.4 0.8-1.1 0.5-1.9 1.1-3.1 1.2-0.5 0.1-1 0.6-1.4 0.6h-1.8c-0.8 0-1.7-0.1-2.5-0.1-0.5 0-1-0.4-1.5-0.5-1.1-0.3-2.2 0.2-3.2-0.3 0.3-0.4 0.8-0.7 1-1.2 0.1-0.2-0.1-0.6-0.1-0.8 0-0.1 0.3-0.3 0.4-0.4 0.5-0.5 0.9-0.9 1.3-1.3 0.2-0.2 0.2-0.6 0.2-0.8 0-0.1 0.3-0.3 0.4-0.4 0.2 0.4 1 1.3 0.5 1.8-0.5 0.5-1.2 1-1.1 1.7 0.1 0.3 1.3 0.4 1.7 0.5 0.7 0.2 1.4 0.2 2.1 0.2 1.5-0.1 2.8-0.4 4.1-1.1 0.7-0.3 1.3-0.8 2-1.2 0.5-0.3 0.7-1 1-1.5 0.8-1.1 1.1-2.2 1.6-3.5 0.5-1.2-0.1-2.1-0.8-3.1-0.1-0.2-1.3 0-1.6 0-0.6-0.1-1.1-0.4-1.7-0.7-0.9-0.4-2.4-0.1-3.4 0-1.2 0.1-2.3 0.2-3.4 0.6-1 0.3-1.8 1.1-2.5 1.9-0.3 0.4-0.8 0.8-1.1 1.3-0.2 0.4-0.8 1.1-0.9 1.6-0.1 0.3 0.2 1.4 0.4 1.6 0.1 0.1 0.5 0.5 0.4 0.6-0.2 0.2-0.4 0.5-0.5 0.7-0.2 0.6-0.4 1-0.9 1.5-0.4 0.4-0.7 0.4-1.3 0.1-1.1-0.6-2.3-1-3.5-1.1-2.3-0.2-4.2-2-6.3-2.8-2.1-0.8-4.2-1.9-6.1-3.2-2-1.4-3.9-3-6-4.3-1.1-0.7-2.1-1.3-3.2-2-0.8-0.5-2.3-0.3-2.9-0.9-0.7-0.7-0.7-0.8-1.7-0.8-0.8 0-0.5 0.7-0.4 1.2 0.2 0.8 1.7 1.7 2.5 2.1 2 1.1 3.6 3.2 5 5 1.4 1.7 1.6 4.4 3.4 5.8 0.6 0.5 1.1 0.5 1.8 0.6 0.5 0 1-0.3 1.5-0.5 0.5-0.3 1.5 0.1 2.1 0.1 0.6 0 0.9 0.1 1.4 0.2 2.5 0.7 4.8 1.3 7.2 2.4 2 0.9 4.1 1.9 6.3 2.6 1.1 0.4 2.2 0.8 3.3 1.1 1.1 0.3 2.4 0.8 3.6 0.8-0.4-0.8-0.9-1.2-0.3-2 0.7-0.9 0.9 0.6 1 1.1 0.1 0.5 1.1 1.1 1.5 1.5 0.6 0.5 1.1 1.1 1.6 1.7 0.4 0.4 0.4 0.4 0.4 1 0 0.4 0 0.6 0.3 0.9 0.4 0.5 1.5 1.1 0.9 1.7-0.6 0.7-1.2 0.6-1.6-0.3-0.3-0.7-0.5-1.4-0.8-2.1-1.2 1-1.6 2.3-2.1 3.7-0.2 0.5 0.1 1.5 0.1 2.1 0 0.6-0.1 1.2 0.2 1.7 0.4 0.8 0.7 1.5 1.1 2.3 0.2 0.4 1.2 0.9 1.5 1.1 1.2 0.8 2.1 1.6 3.5 1.9 1.2 0.2 2.3 0.7 3.5 0.4q1.1-0.3 2.1-0.6c0.2-0.1 0.5-1.2 0.6-1.4 0.2-0.5 0.6-1.1 0.7-1.7 0.1-0.6 0-1.3 0-1.9 0-1.3-0.2-2.9-0.7-4-1-2.2-2.5-4.9-5.1-5.3-0.7-0.1-1.6 0.1-2.3 0.1-0.7 0.1-0.4-0.7-0.7-1.1-0.7-1-1.4-1.8-2.3-2.7 0.5-0.5 0.4-0.3 1 0.1 0.3 0.3 0.6 0.5 1 0.7 0.4 0.2 0.8 0.4 1.1 0.8 0.2 0.2 0.5 0.8 0.8 0.8 1 0 1.9 0 2.9 0.1 0.8 0.1 1.5 1 2.2 1.5 0.6 0.5 1.1 1.2 1.5 1.9q1.2 1.8 3 3c2.4 1.5 5 2.8 7.6 4 1.1 0.5 2.2 1.1 3.3 1.6 2.2 1.1 5.1 1.2 7.5 1.2 2.4 0.1 4.7-0.5 6.9-1.2q2.1-0.6 4.2-1.2c1.2-0.3 2.3-1.1 3.4-1.6 1.5-0.8 3-1.4 4.6-1.9 0.6-0.2 1.3-0.1 1.9-0.1 0.5 0 0.9-0.2 1.4-0.4 0.2-1.1-0.2-1-0.8-1.3zm18.1-18.4c-0.4-0.2-0.5-0.2-0.9-0.2-0.7 0-1.4-0.1-2.1-0.1-1.5 0.1-2.8 0.5-4.2 0.9-2.4 0.7-4.6 1.9-7.1 1.9-1.7 0-3.3 0.1-4.9 0.1-0.9 0-2-0.1-3 0.1-2.4 0.4-4.7 1.5-6.9 2.4-2.2 1-4.6 1.6-6.9 2.3-1.1 0.3-2.2 0.4-3.3 0.6-1.2 0.2-2 0.5-3.1 0.9 0.7 0.5 2.1 0.2 3 0.3 1 0.1 2 0 3-0.1 1.8-0.1 3.6 0.2 5.4-0.2 1.2-0.3 2.5-0.5 3.7-0.8 0.5-0.1 0.9-0.2 1.4-0.3 0.5-0.2 1 0.3 1.6 0.3 0.5 0 1-0.2 1.5-0.2 0.4 0 0.9 0.1 1.3 0 1.1-0.4 1.8-0.6 2.9-0.6-2 1.4-4.5 1.6-6.8 2.2-1.1 0.3-2.2 0.6-3.4 0.7-1.1 0.1-2.1 0.2-3.2 0.2-2.6 0-5.3 0.1-7.9 0.1-2.3 0-4.5-0.3-6.7-0.6 1.8 0.6 3.5 1.5 5.3 2.2 1.7 0.7 3.6 1.2 5.4 1.7 1.8 0.5 3.4 1.2 5.2 1.3 2.3 0.1 4.6 0.3 6.8 0 2.6-0.3 4.9-0.8 7.3-1.6 1.1-0.4 2.2-1.2 3.2-1.8 1-0.6 1.9-1.3 2.8-1.9 1.7-1.1 3.2-2.7 4.8-4 1.1-1 2.3-1.9 3.4-2.9 0.2-0.2 0.7-0.8 1-0.8h1.1c0.5 0 0.6-0.4 0.9-0.7 0.3-0.4-0.5-1.3-0.6-1.4zm23.9-33.1c15.2-12.4 23.2-32.2 21-51.7-2.1-19.2-14.2-36.5-31.5-45.2-19.6-9.8-43.8-7.6-61.3 5.7-0.7 0.5-1.3 1-1.9 1.5-0.3 0.3-0.5 0.5-0.8 0.7-0.4 0.3-0.4 0.5-0.8 0.2-1.1-0.9-2.1-1.8-3.2-2.6-2.3-1.7-4.7-3.2-7.2-4.6-5.1-2.8-10.6-4.8-16.3-5.9-10.4-2.1-21.3-1.3-31.2 2.3-18.2 6.5-32.2 22.2-36.7 40.9-4.6 19.2 1 39.9 14.8 54.1 14.3 14.8 35.9 20.9 55.8 15.9 5.6-1.4 11-3.6 15.9-6.6 2.4-1.4 4.7-3.1 6.9-4.9 0.3-0.3 0.7-0.6 1-0.9 0.4-0.4 0.5-0.1 0.8 0.2 0.5 0.4 1.1 0.9 1.6 1.3q1.7 1.2 3.3 2.4c9.6 6.6 21.2 10.2 32.9 10.2 13.3 0 26.3-4.7 36.9-13z"/>
		<path id="Layer" fill-rule="evenodd" class="s1" d="m318.8 288c-1.5-0.2-3-0.4-4.5-0.7-1.6-0.3-3.1-0.9-4.7-1.3-2.9-0.7-5.5-2.1-8.2-3.2-2.2-0.9-4.7-1.2-7-1.1 0.2 0.7 2.7 1 3.3 1.1 0.9 0.2 1.9 0.9 2.8 1.4 2.1 1.2 4.1 2.4 6.3 3.3 1.1 0.5 2.4 1.3 3.6 1.4 1.2 0.2 2.4 0.3 3.5 0.4 1.4 0.1 3.2 0.5 4.6-0.1 1.2-0.5 2.4-0.4 3.6-0.7 0.1 0 0.2-0.4 0.2-0.5-1.2-0.2-2.3-0.1-3.5 0z"/>
		<path id="Layer" fill-rule="evenodd" class="s1" d="m249.3 264.6c-0.7-0.6-1.3-1.4-2.1-1.7-0.4 0.6 1.2 1.5 1.6 1.9 0.5 0.5 2.2 2.3 1.9 3.2-0.2-0.4-0.6-0.5-0.7 0 0 0.3 0.2 0.9 0.3 1.1 0.2 0.4 0.3 1 0.5 1.3 0.5 0.6 1.3 0.2 1.5-0.4 0.2-0.9-0.3-2.5-0.8-3.3-0.7-0.8-1.6-1.5-2.2-2.1z"/>
		<path id="Layer" fill-rule="evenodd" class="s1" d="m291.1 273c2.2-0.7 4.4-1.4 6.6-2 2.2-0.6 4.5-1 6.8-1.4 2.4-0.5 4.7-0.9 7.2-1 1.2-0.1 2.4-0.2 3.6-0.4 1-0.2 1.9-0.8 2.8-1.2 1.3-0.6 2.3-0.8 3.7-1 1-0.2 2.3 0.1 3.2-0.2 0.2-0.1 0.7-0.2 0.7-0.4 0-0.5 0-0.4-0.5-0.4-0.6 0-1.3 0.1-1.9 0.1-1.1 0.1-2.1 0.3-3.2 0.5-2.5 0.3-4.9 0.1-7.3 0.4-2.2 0.3-4.3 0.6-6.4 1.2-2.7 0.7-5.5 1.3-8.1 2.4-2.6 1.1-5.2 2.3-7.8 3.5 0.1 0.1 0.3 0 0.6-0.1z"/>
		<path id="Layer" fill-rule="evenodd" class="s1" d="m263 130.2c14.3 0 28.1 5.2 38.8 14.6 12.7 11.2 20 27.3 20 44.2 0 16.9-7.3 33-20 44.2-10.7 9.4-24.5 14.6-38.8 14.6-32.4 0-58.8-26.4-58.8-58.8 0-32.4 26.3-58.8 58.8-58.8zm0 115.9c13.9 0 27.4-5 37.8-14.2 12.4-10.9 19.5-26.5 19.5-43 0-16.4-7.1-32.1-19.5-43-10.5-9.1-23.9-14.2-37.8-14.2-31.6 0-57.3 25.7-57.3 57.3 0 31.6 25.7 57.3 57.3 57.1z"/>
		<path id="Layer" class="s1" d="m235.7 149.2c0.7-0.7 1.1-1.1 2.1-1.3 0.3-0.1 0.8 0.2 0.6 0.5-0.2 0.4-0.5 0.6-0.6 1-0.3 1-0.5 1.7-1.2 2.5-0.4 0.5 0.2 0.5-0.6 0.8-0.4 0.1-0.7 0.3-1.1 0.5-0.3 0.2-0.6 0.4-1 0.4-0.4 0-0.8-0.5-1.1-0.5-0.2 0-0.9 0.2-0.9-0.2 0-0.5 0.4-0.7 0.7-1.1 0.7-0.7 1.5 0 2.2-0.3 0.8-0.4 0.8-1.7 0.9-2.3z"/>
		<path id="Layer" class="s1" d="m231 152.9c0.3 0 0.6 0.2 0.2 0.4-0.3 0.1-0.6-0.2-0.2-0.4z"/>
		<path id="Layer" fill-rule="evenodd" class="s1" d="m302.1 148.8c0 0.7-0.2 0.5-0.9 0.5-0.9 0-1.6-0.8-2.5-0.8-0.8 0-0.6-0.3-1.2-0.6-0.1 0-0.4 0.1-0.5 0-0.1-0.3-0.3-0.5-0.4-0.8-0.4-0.8-0.7-1.4-1.3-2.1-0.5 0.5-0.4 1-0.8 1.4-0.5 0.5-0.9 0.5-1.6 0.6-0.5 0.1-1 0.6-1.1 1-0.1 0.1-0.5 1.6-0.2 1.6 0.4 0 1.1-0.7 1.4-0.4 0.2 0.2 0.5 0.4 0.6 0.6 0.1 0.2-0.1 0.6 0 0.8 0.2 0.4 1 0.8 1.3 1.1q0.6 0.6 1.2 1.2c0.7 0.8 1.2 2.1 1.6 3.1 0.4 1.1-0.2 1.9-0.2 3.1 0 0.4 0 0.6-0.2 0.9-0.1 0.2 0.2 0.3 0.3 0.5 0.4 0.8 0.4 0.7-0.2 1.3-0.8 0.7-0.9 2-0.7 3 0.1 0.9 0.3 1.1 0.9 1.7 0.3 0.3 0.1 1.2 0.1 1.6 0 0.4-0.6 0.8-0.9 1.1-0.2 0.2-0.3 0.4-0.5 0.2-0.2-0.2-0.4-0.3-0.5-0.6-0.1-0.7 0-1.3-0.5-1.7-0.4-0.3-0.7-0.6-1.1-1-0.4-0.4-0.3-0.5-0.7-0.1-0.2 0.2-0.5 0.3-0.7 0.5-0.4 0.3 0.2 1.2 0.3 1.4 0.4-0.4 0.9-1 1.3-0.6 0.4 0.4-0.1 0.8-0.4 1.1 1.2 1.2 1.4 2.9 1.7 4.5 0.2 0.8 0 1.8-0.1 2.6-0.1 0.4-0.4 1.6-0.7 1.9-0.4 0.4-1.1 1.5-1.7 1.6-0.7 0.1-1.3 0.8-1.3 1.5 0 0.2 0.2 0.9 0 1.1-0.2 0.2-0.8 0.6-1 0.4-0.3-0.3-0.4-0.7-0.1-1 0.3-0.3 0-0.5-0.3-0.8-0.3 0.3-1.3 1-1.3 1.4 0 0.8 0 1.3 0.3 2.1 0.4 1.1 1.1 2.4 0.7 3.7-0.2 0.5-0.2 0.6-0.6 0.9-0.2 0.1-0.4 0.1-0.6 0.3-0.5 0.5-0.7 1.2-1.4 1.1-1-0.2-2-1.8-2.7-2.5-0.8 0.7-1.1 1.5-0.8 2.5 0.1 0.4 0.2 1 0.6 1.2 0.5 0.3 1 0.6 1.3 1 0.6 0.8 0.9 1.8 1.1 2.8 0.1 0.4 0.1 0.7 0.2 1 0 0.2 0.3 0.2 0.4 0.4 0.2 0.5-0.2 0.7-0.6 0.6-1-0.3-1.6-1.5-2.1-2.3-0.6-0.8-0.9-1.8-1.2-2.8-0.3-1-0.2-2.1-0.8-2.9-0.5-0.7-0.7-1.8-0.9-2.7-0.8 1.2-1.4 1-2-0.2-0.2-0.4-0.3-1.1-0.5-1.4-0.1-0.2-0.4-0.2-0.6-0.3-0.2 0-0.3-0.3-0.4-0.5-0.2-0.3 0-0.9-0.2-1.3-0.3-0.5-0.6-0.6-1.2-0.6-1.1-0.1-1.8 0.3-2.5 1-0.7 0.6-1.5 1.2-2.2 1.8-0.9 0.8-1.2 1.4-1.2 2.6 0 0.6 0.1 0.9-0.3 1.3-0.3 0.3-0.5 0.6-0.5 1 0 1-0.8 1.8-1.3 2.6-0.8-0.8-1.1-1.7-1.8-2.5-0.7-0.9-1.3-1.8-1.9-2.8-0.6-1-0.6-2.2-0.7-3.3-0.1-0.6 0-0.7-0.6-0.7-0.8-0.1-0.8-0.2-1.2-0.9-0.2-0.5-0.4-0.9-0.8-1.3-0.5-0.5-0.7-0.5-1.4-0.6-0.9-0.1-1.7 0.3-2.7 0.2q-0.9-0.2-1.8-0.3c-0.3 0-0.9-0.7-1.1-0.9-0.5-0.5-0.5-0.6-1.3-0.6-0.5 0-1 0.1-1.5 0.1 0-0.6 0-1-0.2-1.5-0.1-0.4-0.8-0.5-1.1-0.7 0 0.4 0 0.6 0.2 1 0.3 0.5 0.5 1.1 0.8 1.6 0.4 0.7 0.4 0.7 1.3 0.7 0.7 0 2.1-0.1 2.6 0.4 0.3 0.3 0.4 0.8 0.5 1.2 0 0.1 0.6 0 0.7 0 0.5 0 0 1.2-0.1 1.5-0.2 0.4-0.7 0.7-0.9 1.1-0.2 0.3-0.7 1.3-1.1 1.3-0.7 0-1 0.1-1.6 0.4-0.9 0.6-1.9 1.5-2.9 1.8-0.6 0.1-1.1 0.3-1.7 0.5-0.5 0.1-1.3 0.5-1.7 0.4-0.7-0.2-1.2-0.2-1.4-0.9-0.3-0.8-0.4-1.7-0.6-2.5 0-0.4 0-1-0.4-1.3-0.6-0.4-1-0.5-1.3-1.1-0.6-1.1-0.9-2.2-1.2-3.4-0.2-0.8-0.3-2.6-0.9-3.2-0.3-0.3-1.1 0.4-1.1 0.8v1.5c0 0.5-0.1 1.1 0.2 1.6 0.4 0.5 0.6 0.9 0.8 1.5 0.2 1 1 2.2 1 3.2 0 0.2-0.1 1 0 1.1 0.2 0.1 0.6-0.1 0.8 0 0.4 0.2 0.8 1 1.1 1.3 0.7 0.8 0.7 2.2 1.8 2.7 0.3 0.2 1.3 0.3 1.7 0.2 0.9-0.6 2.5-1.5 3.7-1.1 0.5 0.2-0.4 1.3-0.6 1.5-0.3 0.5-0.4 1-0.5 1.6-0.2 1-0.7 2.2-1.3 3-1.6 2.1-3.4 3.8-5.3 5.7-0.7 0.7-1.5 1.5-2.2 2.2-0.5 0.5 1.2 2.1 1.2 2.6v4.3c0 1.2-0.1 1.8-1 2.7-0.8 0.8-1.4 1-1.4 2.2 0 0.4-0.1 1.1 0 1.5 0 0.2 0.3 0.4 0.4 0.7 0.4 1.1-0.2 1.9-1.2 2.3-0.5 0.3-0.6 0.3-0.8 0.9-0.2 1-0.2 2.5-1.2 3-1.1 0.6-2.3 1.2-3.5 1.8-0.4 0.2-0.9 0.8-1.3 0.9-0.3 0-1.1-0.3-1.2-0.6-0.6-1.1-1.1-2.2-1.7-3.3-1.2-2.3-2.1-4.7-3.1-7.1-0.4-0.8-0.6-1.7-1.1-2.5q-0.6-1.1-1.2-2.1c-0.2-0.5-0.5-0.6-0.3-1.1 0.2-0.5 0.7-1.3 0.7-1.8v-2c0-1-0.9-2-1.2-2.9q-0.8-1.8-1.5-3.6c-0.2-0.5-0.2-0.8-0.2-1.4 0-0.4 0.2-1.6 0-1.9-0.2-0.4-1.3-0.8-1.7-1-0.5-0.2-0.8-0.7-1.2-1.1-0.3-0.4-2.9-0.2-3.4-0.2-0.7 0-1 0.1-1.5-0.4-0.7-0.6-0.7-0.5-1.5-0.3-0.8 0.2-1 0.4-1.6-0.2-0.6-0.5-0.6-0.6-0.6-1.3 0-0.5 0.1-1.1-0.1-1.6-0.3-0.7-0.6-1.3-0.9-2-0.5-1.2-0.8-2.4-1.2-3.6-0.1-0.4-0.4-0.9-0.3-1.3 0.2-0.6 0.4-1.1 0.5-1.7 0.2-1.2 0.4-2.5 0.6-3.8 0.2-0.8 0.1-2.2 0.6-2.8 1-1.1 2-2.3 3-3.5 1.3-1.7 3.3-2.8 5.1-4q1.9-1.4 3.9-2.7c0.4-0.3 0.7-0.5 1-0.7 0.1-0.1 0.8 0.5 1 0.6q0.9 0.4 1.8 0.9c0.4 0.2 0.9 0.1 1.4 0.1 0.7 0 1.5 0.1 2.2 0.1 0.4 0 1-0.1 1.4 0.1 0.3 0.2 0.4 0.5 0.7 0.6 0.4 0.1 0.4 0.1 0.5 0.5 0 0.2 0.2 0.5 0.4 0.6 0.5 0.3 0.1 0 0.5 0 0.5 0 0.3-0.1 0.7 0.2 0.2 0.2 0.4 0.3 0.5 0.5 0.2 0.4 0.4 1-0.1 1.3-0.4-0.4-0.6-0.9-0.9-1.4-0.1-0.1-0.5-0.1-0.5 0v0.8c0 1.3 1.8 1.1 2.4 1.7 0.4 0.4 0.6 1 0.8 1.5 0 0.2 1.3 0.1 1.5 0.1 0.6 0 1 0 1.5 0.2 0.8 0.3 0.9 0.4 1.4 0.9 0.5 0.5 1.1 0.6 1.7 0.8 0.4 0.1 1.3 0.4 1.6 0.3 0.4-0.2 0.8-0.9 0.9-1.3 0-0.3-0.6-1-0.9-1.1-0.3-0.1-0.5 0.3-0.6-0.2-0.1-0.3-0.1-0.5-0.4-0.7-0.4-0.3-1.2-0.3-1.5-0.7-0.2-0.2-0.2-0.7-0.2-0.9 0-0.3 0.3-0.3 0.3-0.5 0-0.7 0.1-1.1 0.3-1.7-0.3 0-1-0.2-1 0.2 0 0.3 0.3 0.9 0.2 1.2-0.2 0.9-1.8 0.9-2.4 0.9 0.2-1 0.2-2.1 0.2-3.1 0-0.9 0.1-2.6-1.2-2.6-0.5 0-0.4 0.1-0.4 0.6v0.8c0 0.5 0.7 0.8 0.7 1.2 0 1.2 0 2-0.9 2.9 0-0.3-0.1-0.5-0.2-0.8-0.7 0.6-1 0.8-1.9 0.9 0-0.2-0.1-0.8 0.1-0.9 0.5-0.3 0.5-0.5 0.6-1.1 0.1-0.4-0.2-0.8-0.4-1-0.4-0.4-0.4-0.5-0.5-1-0.1-0.4 0.3-1.3 0-1.6-0.4-0.4-0.6-0.9-1-1.3-0.3-0.4-1.2-0.3-1.6-0.1-0.4 0.2-1.2 0.1-1.5-0.2-0.3-0.3-1.1-0.3-1.6-0.2-0.4 0-0.1 0.2-0.2 0.5-0.1 0.2-0.4 0.4-0.6 0.6-0.5 0.7-0.4 1-1.3 0.9-0.8-0.1-1.6-0.3-2.4-0.3-0.5 0-1.5 0.2-1.5-0.5 0-0.7 0-1.1-0.3-1.7-0.2-0.5 0.4-0.8 0.8-1.2 0.4-0.4 0.5-0.6 0.6-1.2 0.2-0.7 0.5-0.9 1-1.4 0.5-0.4 0.9-0.3 1.3 0.2 0.4 0.5 1.2 0 1.6 0.2 0.2 0.1 0.7 1.1 1.1 0.7 0.5-0.4 0.6-1 1.1-1.4 0.3-0.3 0.7-0.8 0.9-1.2 0.4-0.8 0.3-1.2 1.2-1.2 0.5 0 0.9 0 1.4 0 0.4 0.1 1.4 0.4 1.7 0.2q0.7-0.3 1.5-0.6c1.1-0.3 2.1-1 3-1.6 0.5-0.4 1-0.3 1.6-0.3 0.4 0 1.4-0.2 1.6 0 0.7 0.7-0.5 2.2 0.7 2.9 0.3 0.2 1.2 0.9 1.6 0.5 0.4-0.5 0.8-0.8 1.3-1.2 0.5-0.4 0.9-0.2 1.5-0.3 0.6-0.1 1.2-0.3 1.8-0.5 0.9-0.3 2.4 0.2 3-0.6 0.6-0.7 0.1-0.7-0.6-0.7-0.6 0-1.1 0.2-1.7 0.4-0.6 0.2-1.2 0.1-1.7 0.1 0.1 0-0.1-0.5-0.2-0.6-0.2-0.3-0.1-0.4 0.1-0.7 0.3-0.7 0.8-0.5 1.2-0.9 0.3-0.3 1.1 0.1 1.5-0.1 0.6-0.3 0.8-1 0.8-1.5 0-0.4-1.1-0.3-1.4-0.2-0.9 0.3-2.2 1.2-2.7 1.9-0.4 0.5-0.5 1.2-1 1.5-0.3 0.2-0.5 0.3-0.7 0.5-0.1 0.2-0.1 0.5-0.3 0.7-0.4 0.4-2.9 1-2.9 0 0-0.6 0.6-0.8 0.6-1.4v-0.8c0-0.3-0.2-0.2-0.5-0.2-0.5-0.1-1.3 0-1.3-0.6 0-0.5 0-0.8 0.4-1.3 0.4-0.5 0.7-1 1.3-1 0.5 0 1 0 1.5-0.1 0.6-0.2 1.2-0.3 1.9-0.3 0.4-0.1 0.7-0.5 1.2-0.7 0.3-0.1 0.7-0.1 0.9-0.2 0.3-0.2 0.4-0.4 0.6-0.5 0.5-0.2 0.8-0.5 1.2-0.9 0.3-0.3 1.3-0.2 1.6 0.1 0.5 0.5 0.8 0.4 1.4 0.4 1.3 0 2 0.3 2.6 1.5 0.3 0.6 0.5 0.9 1 1.4 0.3 0.3 0.2 1 0.2 1.4 0.6 0 0.9 0 1.3-0.4 0.4-0.4 1.7 0.1 2.2 0.1 0.9-0.1 1.8-0.3 2.8-0.1 0.7 0.1 0.8 0.3 1.1-0.4 0.2-0.4 0.6-0.5 1-0.6 0.2 0 0.4 0.8 0.6 1 0.4 0.3 0.6 0.7 1.1 0.7 0.2-0.8-0.7-0.8 0.1-1.4 0.4-0.4 1-0.6 1.6-0.8 1.2-0.4 2.2-1.1 3.3-1.7 0.5-0.3 0.9-0.8 1.3-1.2 0.6-0.6 0.7-0.5 1.5-0.5 0.7 0 1.3 0.1 1.9 0.2 0.6 0.1 1.3-0.1 1.9-0.2 0.5-0.1 0.9-0.5 1.4-0.5 0.6 0 1.2-0.1 1.8-0.2 0.6-0.1 1.2-0.1 1.9-0.1 0.6 0 0.9-0.5 1.2-0.9 0.3-0.3 0.4-1 0.6-1.5 0-0.1 0.2-0.7 0.3-0.7 0.2 0 0.6 0.1 0.8 0 0.7-0.6 0.9-0.6 1.7-0.6 0.5 0 1 0 1.5 0.1 1.3 0.1 2.1 0.5 3.1 1.4 0.4 0.4 1 0.4 1.4 0.8 0.4 0.4 0.7 0.9 1.2 1.2 0.9 0.7 1.6 1.7 2.6 2.3 1 0.6 1.9 1.2 2.8 1.9 0.3 0.4 0.5 0.7 0.9 1.2zm-55.7 6.5c0.2-0.2 0.3-0.5-0.1-0.5-0.4 0.1-0.1 0.7 0.1 0.5zm2.8 11.3c-0.3-0.7-0.3-0.8-1.1-0.8-0.3 0-0.5 0.1-0.6-0.2-0.1-0.3-0.1-0.4-0.4-0.6-0.3-0.3-1 0.2-1.3 0.4-0.4 0.2-0.6 1-0.7 1.4-0.2 0.5 0.6 0.7 1 0.6 0.8-0.2 2.3 1.2 2.9 0.5 0.4-0.6 0.3-0.7 0.2-1.3zm4.6 0.2c-0.6 0.2-0.9 0.4-1 1-0.1 0.5 0 1 0.1 1.5 0 0.4 0.4 1.3-0.3 1.3-0.4 0-0.8 0.2-0.5 0.7 0.3 0.7 0.6 0.3 1.2 0.4 0.7 0.2 0.8-0.8 1-1.2 0.4-0.7 0.3-0.9 0.1-1.6-0.2-0.7-0.1-1 0.3-1.5 0.3-0.8-0.6-0.9-0.9-0.6z"/>
		<path id="Layer" class="s1" d="m232.5 148.6c0.2 0 0.5-0.3 0.7-0.3 0.3 0.1 0.5 0.2 0.8 0.2 0.6 0.2 0.7 0.3 0.8 0.9 0.1 0.4 0.2 0.9-0.2 1.1-0.4 0.2-0.9 0.3-1.3 0.4-0.4 0.1-1 0-1.4 0.2-0.5 0.3-0.8 0.4-1.1-0.2-0.5-0.9 0.3-0.8 0.8-1.2 0.3-0.3 0.6-0.8 0.9-1.1z"/>
		<path id="Layer" class="s1" d="m247.8 207.7c0.2-0.7 0.1-0.8 0.8-1 0.4-0.1 0.9 0.6 1 0.9 0.5 1.2 0.5 2.1 0.3 3.4 0 0.5-0.6 1-0.8 1.4-0.3 0.5-0.4 0.7-0.6 1.3-0.2 0.6-0.4 1.1-0.3 1.7 0 0.4 0.6 1.2 0.3 1.4-0.1 0.1-0.8 1-1.1 0.8-0.5-0.4-0.9-0.8-1.3-1.2-0.7-0.7-0.4-2.1-0.4-3.1 0-0.6 0.1-1.1-0.1-1.7-0.2-0.5-0.1-1 0.1-1.5 0.2-0.4 0.3-1.1 0.8-1.4 0.6-0.3 0.8-0.8 1.3-1z"/>
		<path id="Layer" class="s1" d="m269.9 191.9c0.1-0.2 1-1.3 1.1-1.3 0.5 0.2 0.3 1.2 0.2 1.7 0 0.4-0.3 1.5-1 1.2-0.5-0.1-0.3-1.2-0.3-1.6z"/>
		<path id="Layer" class="s1" d="m279.8 193.8c1 0 1.9-0.1 2.8 0.5 0.8 0.5 1.4 1.3 2.1 2 0.6 0.7 1.4 1.2 2 1.9 0.4 0.4 0 2-0.2 2.6-0.3 0.8-1.5-1.4-1.6-1.7-0.5-0.9-1.2-1.5-1.7-2.4-0.2-0.4-1.4-1.7-1.8-1.8-0.3 0-1 0.1-1.3-0.1-0.3-0.1-0.7-0.8-0.3-1z"/>
		<path id="Layer" class="s1" d="m287.5 199.4c0.3 0.6 0.5 1.1 0.7 1.7 0.1 0.4 1.4 0.5 1.8 0.5 0.5 0.1 1.2 0.1 1.5 0.5 0.4 0.4 0.2 1.4-0.5 1.2-0.5-0.2-0.7-0.7-1.4-0.7-0.6 0-1.1-0.2-1.7-0.4-0.6-0.2-1.2-0.4-0.7-1.1 0.4-0.4-0.2-1.2 0.3-1.7z"/>
		<path id="Layer" class="s1" d="m292.4 203.4c0.6 0 0.7 0 1.3 0.3 0.3 0.2 0.9 0.1 1.2 0.1 0.5 0 0.9 0 1.4 0.2 0.6 0.3 0.7 0.4 0.2 0.8-0.4 0.3-2-0.2-2.5-0.4-0.4-0.1-0.7-0.3-1.2-0.3-0.5 0-1-0.5-0.4-0.7z"/>
		<path id="Layer" class="s1" d="m298.4 204.8c0.2 0 0.9-0.2 1 0.1 0.2 0.5 0.3 0.9-0.3 0.9-0.5 0-0.6-0.1-1-0.2-0.5-0.1-0.6 0.2-1 0.3-0.3 0.1-0.7 0-1 0-0.4 0-0.6-0.7-0.1-0.7 0.7 0 1.7 0.1 2.4-0.4z"/>
		<path id="Layer" class="s1" d="m288.9 194.5c0.9-0.2 1.7-0.4 2.5-1 0.4-0.3 0.9-0.6 1.2-1 0.4-0.4 0.7-1.1 1.3-0.8 0.2 0.1 1.3 0.6 1.2 0.8-0.2 0.8-0.4 0.5-1 0.9-0.5 0.3-0.2 0.8 0.1 1.2 0.6 0.7 0.3 0.8-0.1 1.5-0.2 0.2-0.8 1-0.8 1.3 0 0.6-0.5 0.7-0.6 1.2-0.1 0.6-0.5 0.6-0.9 0.3-0.4-0.4-0.7-0.6-1.3-0.6-0.3 0-1.2 0.4-1.5 0.2-0.2-0.1-0.4-1.2-0.5-1.4-0.2-0.5-0.4-0.9-0.3-1.4 0-0.8 0.1-1.1 0.7-1.2z"/>
		<path id="Layer" class="s1" d="m298.7 196.2c-1-0.1-2.2-0.1-3.1 0.5-0.8 0.6-1.2 1.4-1.2 2.5 0 0.4-0.1 1 0.1 1.4 0.1 0.3 0.9 1 1.2 0.9 1-0.2-0.8-1.6-0.3-2.4 0.4 0.2 0.4 0.5 0.5 0.8 0.2 0.5 0.4 0.6 0.9 0.7 0.2 0.1 1-0.2 0.8-0.4-0.3-0.4-0.4-0.5-0.8-0.7-1-0.5 0.8-0.5 1.1-0.7 0.9-0.8-1-0.6-1.4-0.7 0.1-0.6 0.7-0.9 1.3-0.9 0.3-0.1 1.5-0.5 0.9-1z"/>
		<path id="Layer" class="s1" d="m299.4 193.8c0.3-0.2 1.1 0 1.1 0.4 0 0.3-0.1 0.6-0.1 0.9 0 0.5 0.5 0.1 0.7 0.4 0.3 0.3-0.3 0.9-0.5 1.1-0.3 0.3-1.5-0.4-1.8-0.8-0.4-0.9 0.4-1.4 0.6-2z"/>
		<path id="Layer" class="s1" d="m297.3 189.2c-0.1-0.5 0.5-1.2 1-1 0.4 0.1 0.5 1 0.2 1.3-0.4 0.6 0.4 0.8 0.4 1.5 0 0.5 0.6 1.4-0.1 1.5-0.7 0.2-0.8-0.3-1.4-0.6-0.3-0.1-0.5-0.1-0.8-0.1-0.1 0-0.3 0.3-0.5 0.3-0.5 0-0.6-0.8-0.2-1 0.6-0.3 1-0.5 1.5 0 0.1-0.3 0.4-0.6 0.3-1 0-0.4-0.2-0.5-0.4-0.9z"/>
		<path id="Layer" class="s1" d="m296.2 187.2c0.3 0.1 1.2 0.9 0.5 1-0.4 0.1-1.1-0.7-0.5-1z"/>
		<path id="Layer" class="s1" d="m297.4 186.1c0.1 0.1 0.6 0.7 0.6 0.9-0.1 0.5-0.6 0.3-0.9 0.3-0.6 0-0.4-1.9 0.3-1.2z"/>
		<path id="Layer" class="s1" d="m295.4 181.8c0.5 0.1 0.9 0.3 1.1 0.7 0.4 0.5 0 0.7-0.4 1.1-0.3 0.3 0.2 1.1 0.4 1.3 0.1 0.2 0.2 1.2-0.1 1.1-0.5-0.1-1.1-0.2-1.4-0.6-0.4-0.4-0.2-0.7 0-1.2 0.2-0.6-0.8-2.1 0.4-2.4z"/>
		<path id="Layer" class="s1" d="m296 176.9c0.1-0.5 0-0.7 0.3-1.1 0.3-0.4 0.7 0.2 0.8 0.5 0.2 0.7 0.5 1.4 0.3 2.1-0.2 0.9-1 1-1.6 0.4-0.1-0.1 0.1-1.7 0.2-1.9z"/>
		<path id="Layer" class="s1" d="m302 195.9c-0.9-1.5 0.5-1.4 1.6-1.2 0.6 0.1 0.6 0.5 0.8 0.9 0.1 0.2-0.1 0.4-0.2 0.5-0.3 0.5 0.1 0.6 0.4 0.8 0.9 0.6 2-1 2.9-0.3 0.9 0.7 1.5 1.9 2.4 2.5 0.4 0.3 1 0.5 1.4 0.9 0.2 0.2 0.3 0.5 0.5 0.6 0.3 0.2 0.5 0 0.7 0.4 0.6 1 1.1 2.1 1.7 3.2 0.3 0.5 1.5 2.8 0.5 3.1-0.6 0.2-0.9-1.1-1-1.5-0.2-0.6-1-0.1-1.5-0.3-0.6-0.3-0.9-1.4-1.6-1.5-0.8-0.1-1 1.2-1.9 0.6-0.7-0.4-1-1.2-1.8-1.5-0.7-0.2-1.7-0.6-1.3-1.5 0.2-0.4 0.2-0.7 0.2-1.1-0.1-0.5-0.1-0.6-0.5-1-0.5-0.5-1.3-0.9-2-1-0.3-0.1-0.9-0.1-1.1-0.3-0.3-0.2-0.5-0.6-0.7-0.9-0.3-0.2-0.7-0.5-0.2-0.8 0.3-0.2 0.7-0.4 1.1-0.3-0.1-0.2-0.2-0.2-0.4-0.3z"/>
		<path id="Layer" class="s1" d="m314.8 197.4q0-0.1 0-0.3c0.9 0 2.4 1 2.1 1.9-0.1 0.3-0.4 0.6-0.8 0.5-0.4-0.1-0.3-0.4-0.5-0.7-0.1-0.2-0.1-0.7-0.3-0.8-0.2-0.1-0.5-0.2-0.5-0.6z"/>
		<path id="Layer" class="s1" d="m314.6 199.6c0-0.2 0-0.3 0-0.5 0.6 0 0.6 0.5 0.6 1 0 0.3 0 0.4-0.2 0.6-0.1 0.2-0.4 0.2-0.5 0.4-0.3 0.5-1 0.3-0.8-0.4 0.3-0.5 1-0.3 0.9-1.1z"/>
		<path id="Layer" class="s1" d="m317 199.7c1-0.3 0.9 1.8 0.3 2.2-1 0.5-1-1.8-0.3-2.2z"/>
		<path id="Layer" class="s1" d="m317.3 202.7c0.2-0.3 0.4-0.5 0.8-0.5 0 0.5 0 0.8-0.1 1.3 0 0.3-0.2 1.2-0.5 1.4-0.6 0.3-0.5-0.6-0.6-0.9-0.1-0.4-0.3-0.3-0.2-0.7q0.3-0.4 0.6-0.6z"/>
		<path id="Layer" class="s1" d="m300.4 206c0.5 0.1 1 0.2 1.5 0.2 0.6 0 1.2-0.1 1.8-0.1 0.7 0 0.5 0.4 0.5 1 0 0.8-0.4 0.7-0.9 1.2-0.8 1 0.5 2 1 2.6 0.5 0.5 0.7 0.7 1.1 0 0.3-0.6 0.7-0.9 0.9-1.6 0.1-0.5 0.5-0.9 0.6-1.3 0.2-0.5 0.3-1.4 0.8-1.7 1.4-0.9 1 2.2 1 2.9 0 0.7 0 0.9 0.3 1.5 0.4 0.6 0.4 1.2 0.2 1.9-0.3 1 0 2.2 0.3 3.2 0.3 1.2 0.3 2.2 0.2 3.4 0 0.6-0.2 1.1-0.4 1.6-0.2 0.5-0.6 0.8-0.8 1.3-0.3 0.5-0.6 1.1-0.8 1.6-0.2 0.5-0.8 0.7-1 1.2-0.3 0.5-0.5 1-0.8 1.5-0.4 0.6-0.6 0.8-1.2 1.2-0.9 0.6-1.6 1.5-2.6 2-0.5 0.3-0.9 0.3-1.4 0.3-0.6 0-1.2 0.2-1.8 0.2-0.7 0-0.8 0-1.3-0.4-0.3-0.3-0.4-1.1-0.4-1.5-0.1-1.1-0.1-2.4 0.1-3.4-0.5 0.1-0.8 0.7-1.3 0.5-0.7-0.4-0.5-0.8-0.8-1.4-0.7-1.1-0.9-2.1-2.3-2.3-2.3-0.3-4.4 0.3-6.7 0.7-0.2 0-1-0.6-1.2-0.7-0.4-0.4-0.6-0.9-0.3-1.4 0.2-0.4 0.6-0.9 0.7-1.4 0.1-0.6 0.1-1.2 0.2-1.8 0.1-0.5 0.5-0.8 0.7-1.3 0.2-0.6 0.3-1.1 0.6-1.7 0.5-0.9 1.1-1.7 2.2-2.1 1.1-0.4 2.1-0.7 3.1-1.3 0.2-0.1 0.6 0 0.8-0.1 0.3 0 0.4-0.2 0.6-0.5 0.3-0.4 0.9-0.7 1.3-1.1 0.9-1 1.8-1.1 3.1-1.3 0.7 0 1.4-1 2.4-1.6z"/>
		<path id="Layer" class="s1" d="m296.4 231.8c0.5-0.1 0.7-0.2 1 0.2 0.1 0.1 0 0.4 0.1 0.5 0.1 0 0.6-0.1 0.7-0.2 0.3-0.1 0.8-0.6 1.2-0.5 0.4 0.1 0.4 0.6 0.2 0.9q-0.5 0.5-0.9 0.9c-0.3 0.3-0.4 0.9-0.6 1.1-0.7 0.5-1.6 0.2-1.5-0.8-0.7 0.4-1.3-0.1-1.3-0.8 0-0.4 0.8-1.2 1.2-1.3"/>
		<path id="Layer" class="s1" d="m239.5 139.6c0.5 0 0.9 0 1.4 0.2 0.6 0.2 0.7 0 1.2-0.4 0.5 0.4 0.2 1-0.2 1.4-0.7 0.6-1.1 0.7-2 0.7-0.6 0-1.4 0-1.4-0.7 0.1-0.6 0.6-0.9 1-1.2z"/>
		<path id="Layer" class="s1" d="m294.2 149.6c1.3 0.7 2.5 1.9 3.7 2.8 0.5 0.4 0.5 0.4 0.6 1 0 0.4 0.2 0.6 0.6 0.9 0.3 0.2 1.9 1.3 1.1 1.7-0.3 0.2-1.9-0.4-2.2-0.6-0.5-0.4-0.5-1.6-0.8-2.2-0.9-1.4-2.6-2-3.3-3.5 0 0.1 0.2 0 0.3-0.1z"/>
		<path id="Layer" class="s1" d="m302 150c0.2 0.1 1.6 0.8 0.8 0.9-0.6 0.1-1.2 0.4-1.7-0.2 0.3-0.2 0.6-0.5 0.9-0.7z"/>
		<path id="Layer" class="s1" d="m302.6 151.8c0.4 0.1 0.4 0.4 0.1 0.6-0.3 0.2-0.8 0.1-1.1 0-0.3-0.1-0.3-0.6 0-0.7 0.4-0.1 0.7-0.1 1 0.1z"/>
		<path id="Layer" class="s1" d="m300 156.6c0.3 0.1 0.8 0.6 1.1 0.6 0.3 0.1 1.5-0.5 1.7 0 0.2 0.5 0.9 0.5 0.1 1-0.3 0.2-1.1 0.5-1.3 0.9-0.1 0.2-0.2 1.2-0.6 1.1-0.6-0.2-0.6-1.1-0.8-1.7 0-0.4-1.7-1.8-0.2-1.9z"/>
		<path id="Layer" class="s1" d="m302.6 159.3c0.5 0.3 0 0.9 0.2 1.4 0.2 0.4 0.8 0.3 0.8 0.9 0 0.5-0.2 1.2-0.1 1.6 0.1 0.4 0.2 1.2 0.1 1.6 0 0.2-0.2 0.4-0.2 0.5 0 0.2 0.2 0.5 0.1 0.6 0 0.1-0.3 0.1-0.4 0.3-0.1 0.3-0.2 0.5-0.2 0.8-0.1 0.6-0.6 0.4-1 0.6-0.6 0.4-1.3 0.8-2 0.9 0.2 0.4-0.2 1.3-0.8 1-0.4-0.3 0-1.2 0.2-1.5 0.3-0.5 0.7-1 1-1.4 0.3-0.5 0.9-0.5 1.4-0.5-0.2-0.5-1.1-0.9-1.1-1.4 0-0.4 1-1 1.2-1.6 0.1-0.6-0.4-1.6-0.1-2.1 0.3-0.4 0.2-1.7 0.9-1.7z"/>
		<path id="Layer" class="s1" d="m301.6 168.8c-0.6-0.2-2.2 0.8-1.6 1.1 0.6 0.2 1.8-0.4 1.6-1.1z"/>
		<path id="Layer" class="s1" d="m299.6 170.2c-0.1-0.2-0.2-0.3-0.3-0.5-0.3 0.3-1.3 1.4-0.9 1.8 0.5 0.5 0.6-0.3 0.7-0.5 0.3-0.2 0.9-0.3 0.5-0.8z"/>
		<path id="Layer" class="s1" d="m308.7 141.5c1.2 0 1.8-0.2 2.7-1.1 0.4-0.5 0.6-0.7 1.2-0.9 0.5-0.1 0.9-0.4 1.4-0.6 0.5-0.2 1.2-0.3 1.6-0.6 0.5-0.3 0.7-0.6 1.4-0.8 1.1-0.3 2.1 0.1 3.1 0.5 0.7 0.3 2.2 0.4 2.5 1.3 0.2 0.6-0.1 0.9 0.3 1.4 0.3 0.4 0.6 1 0.5 1.5 0 0.2-0.2 0.3-0.3 0.5-0.1 0.3-0.1 0.7-0.2 1-0.1 0.4-0.7 0.9-1 1.2-0.4 0.4-0.7 0.6-1.3 0.6-0.3 0-0.4-1.7-0.5-2-0.3 0.1-0.6 0.2-0.7 0.5-0.2-0.2-0.4-0.4-0.5-0.6-0.5 0.3-1 0.6-1.5 0.8-0.5 0.2-1 0-1.5 0-1.2-0.1-2.4-0.1-3.5-0.1-0.4 0-1.1-0.1-1.5-0.3-0.2-0.1-0.6-0.3-0.7-0.1-0.1 0.3-0.4 0.4-0.7 0.6-0.3 0.2-1.8 0.1-2.2 0.1-0.6 0-1.3 0.1-1.9-0.1 0.7-1.3 2.6-1.4 3.3-2.8z"/>
		<path id="Layer" class="s1" d="m315.4 153c0.4 0.1 1 0.3 1.1 0.8 0.1 0.7-0.9 0.4-1.2 0.4-0.3 0-1.2-0.4-1.1-0.8 0.1-0.5 0.8-0.4 1.2-0.4z"/>
		<path id="Layer" class="s1" d="m313 154.2c0.5 0 0.7 0.1 1.1 0.4 0.4 0.4-0.3 0.7-0.7 0.7-0.4 0-1 0-1.3-0.4-0.4-0.7 0.4-0.4 0.9-0.7z"/>
		<path id="Layer" class="s1" d="m329.7 161.7c0.6 0.2 0.6 0.3 0.9 0.8 0.2 0.3 0.7 0.9 0.2 1.2-0.6 0.4-0.8-0.7-1-1-0.1-0.3-0.6-0.5-0.1-1z"/>
		<path id="Layer" class="s1" d="m335.5 144c0.2-0.4 0.2-0.5 0.6-0.5 0.4 0.1 0.5 0 0.8 0.4 0.4 0.6 0.7 1.2 0.3 1.8-0.5 0.8-0.9 0.6-1.5 0.1-0.5-0.3-0.2-1.3-0.2-1.8z"/>
		<path id="Layer" class="s1" d="m340.5 137.4c0.4-0.7 0.9-1.2 1.5-1.7 0.4-0.3 2.1-0.5 1.8 0.3 0 0.1-0.9 0.1-1.2 0.2-0.3 0.1-0.6 0.5-0.8 0.8-0.2 0.3-0.4 0.5-0.7 0.7-0.2 0.3-0.9 0.3-0.6-0.3z"/>
		<path id="Layer" class="s1" d="m343 137.2c0.7-0.4 0.9-0.4 1.7-0.3 0.3 0 0.3-1 0.5-1.2 0.3-0.4 0.5-1 1-1.2 0.7-0.3 1.1-0.4 1.8-0.4 1.1 0 2.3-0.5 3.2 0.3 0.5 0.4 0.6 0.2 1.2 0.2 0.7-0.1 1-0.1 1.7 0.3q0.8 0.5 1.5 0.9c0.5 0.3 0.9 0.7 1.4 1 0.5 0.3 0.9 0.1 1.4 0.3 0.6 0.2 1.1 0.4 1.7 0.8 0.7 0.5 0.5 0.6 0.6 1.4 0.1 0.7 0.4 1.1 0.7 1.7 0.2 0.4 0 0.9 0.2 1.4 0.3 0.6 0.6 1.1 0.8 1.7 0.2 0.5 0.4 0.8 0.8 1.2 0.4 0.3 0.8 0.8 0.8 1.3 0 1.4-0.9 1.7-2.1 1.7-1.1 0-2.1-0.2-3.1-0.7-1.2-0.5-2.1-1.2-3-2.2-0.4-0.4-0.7-0.8-1.1-1.1-0.5-0.4-1-0.4-1-1 0-0.2 0.4-1.3-0.1-1.4-0.6-0.1-1.3-0.2-1.9-0.3-1-0.1-2-0.3-2.9-0.2-0.5 0-1.3-0.1-1.6 0.3-0.1 0.1 0 0.5-0.1 0.6-0.1 0.1-0.7 0.1-0.8 0.1 0.2 1.7 1.9 0.8 3 1.2 1.1 0.5 2.2 0.6 3.3 0.9 0.7 0.2 0.8 0.3 1.2 0.8 0.4 0.5 0.7 0.9 1.3 1.1 0.5 0.2 1.1 0.4 1.6 0.6 0.7 0.2 0.8 0.8 0 1-0.4 0.1-1.1 0-1.1 0.5-0.1 0.6 0.2 1.1 0.2 1.7 0 0.5-0.1 1.1-0.7 1-0.6-0.1-1.1-0.3-1.7-0.5-0.8-0.3-3.3 0.6-3.2-0.9 0-0.5 0.5-0.9 0.7-1.4 0.2-0.7-0.4-0.7-0.9-1-0.6-0.4-1.1-0.3-1.8-0.5-0.7-0.1-1.1-0.6-1.7-1-0.2-0.2-0.6-0.3-0.7-0.5-0.2-0.3-0.3-0.7-0.5-1-0.5-0.9-0.7-1-1.7-1-0.8-0.1-0.8-0.9-1.1-1.5-0.1-0.3-0.2-0.6-0.3-1-0.1-0.6-0.1-0.3-0.6-0.4-0.5-0.1-0.4-0.2-0.4-0.7 0-0.3-0.6-0.6-0.5-0.9 0.2-0.8 1.3-0.2 1.3 0.4 0.4-0.1 0.4-0.7 0.4-1 0.2-0.5 0.4-0.7 0.6-1.1z"/>
		<path id="Layer" class="s1" d="m365.5 140.2c0.5-0.5 0.9-0.6 1.6-0.2 0.6 0.4 1.3 0.6 1.9 1 0.6 0.5 1 0.9 1.5 1.4 0.3 0.3 0.5 0.5 0 0.8-0.2 0.1-0.6 0.2-0.9 0.2-0.8-0.1-1.1-0.4-1.7-0.8-0.4-0.2-0.3-0.5-0.7-0.7-0.2-0.1-0.7-0.1-0.9 0-0.7 0.3-1.2 0.3-1.6-0.4-0.1-0.2-0.2-0.8 0-0.9 0.4 0 0.7 0.1 0.8-0.4z"/>
		<path id="Layer" class="s1" d="m339.5 140.7c0.3-0.6 0.5-1.1 1.2-0.7 0.3 0.2-0.1 1.1-0.1 1.5-0.5-0.1-1.1-0.2-1.1-0.8z"/>
		<path id="Layer" class="s1" d="m337.7 142.8c0.2-0.4 0.6-0.8 1-1.2 0.4-0.4 1.2-0.3 1 0.4-0.1 0.4-0.5 1-0.8 1.3-0.5 0.7-0.9 0-1.2-0.5z"/>
		<path id="Layer" class="s1" d="m340.6 142.4c0.7-0.5 1.1 0.2 1.2 0.8 0.1 0.8-0.3 1.2-0.3 1.9-0.6-0.1-1.1-0.7-1.4-1.1-0.2-0.3 0.2-0.6 0.4-0.7 0.2-0.1 0-0.7-0.1-1h0.2"/>
		<path id="Layer" class="s1" d="m338.4 144.3c0.5-0.4 1-0.4 1.4 0.2 0.3 0.4 0.4 0.4 0.3 0.9 0 0.2 0 0.7 0.1 0.9 0.2 0.3 0.4 0.4 0.7 0.4 0.4 0 0.6 0.2 0.7 0.5 0.1 0.3 0.5 0.4 0.6 0.6 0.2 0.4-0.1 0.4-0.4 0.7-0.5 0.5-1.2 0-1.8-0.2-0.6-0.1-1.3-0.2-1.7-0.6-0.1-0.1 0.2-1.3 0.1-1.7 0-0.6-0.5-1.3 0-1.7z"/>
		<path id="Layer" fill-rule="evenodd" class="s1" d="m390.2 205.5c-0.3 0.4-0.5 0.8-0.7 1.3-0.5 1.1-1 1.7-1.7 2.6-0.7 0.8-1.5 1.6-1.8 2.6-0.2 0.4-0.1 0.9-0.4 1.3-0.4 0.5-0.6 0.8-0.8 1.4-0.3 1.1-1.3 1.7-2.1 2.4-0.8 0.7-1.3 1.1-2.3 1.5-0.9 0.3-1.6 1.3-2.4 1.9-0.8 0.6-1.6 1.2-2.5 1.7-0.5 0.3-0.9 0.7-1.5 0.9-0.5 0.2-1.2 0.3-1.6 0.7-0.9 0.8-2.1 0.8-3 1.7-0.9 0.8-1.6 1.7-2.5 2.4-0.8 0.6-2.2 0.9-3.2 1.3-0.9 0.3-1.6 1.1-2.4 1.8-1.1 0.9-1.7 1.7-2.5 2.9-0.6 0.9-1.1 1.9-1.6 2.9-0.3 0.7-0.4 0.9-1.1 1.1-0.4 0.1-0.3 0-0.6 0.3-0.2 0.2-0.3 0.4-0.5 0.6 0.4 0.5 0.7-0.8 1.1 0.2 0.1 0.2 0 0.5 0 0.7-0.1 0.4 0 0.3 0.1 0.6 0.1 0.3 0.3 0.4-0.1 0.6-0.1 0.1-0.5 0.1-0.6 0-0.3-0.1-0.5-0.3-0.7-0.4-0.4-0.2-0.6 0.1-1 0.2 0-0.3 0.1-0.9 0-1.2-0.1-0.3-0.7-0.7-0.9-0.9-0.8-0.9-0.3-1.6 0.3-2.4-1-0.4-0.3-1.1 0.3-1.6 0.5-0.5-0.1-1.7 0.1-2.3 0.1-0.6 1-1.2 1.5-1.5 0.3-0.1 0.9-0.3 1-0.6 0.2-0.4-0.2-0.7-0.5-0.8 0.5-0.6 1-1.2 1.3-1.9 0.4-0.8 0.7-1.5 1.2-2.2 0.3-0.6 0.7-1.2 1.1-1.8 0.3-0.5 0.3-0.3 0.3-0.9 0-0.3 0.1-0.7 0.1-1.1 0-0.3 0.4-0.6 0.5-0.9 0.1-0.4 0.3-0.8 0.4-1.2 0.1-0.2 0.6-0.3 0.7-0.6 0.1-0.3 0.3-0.7 0.4-1 0.3-0.7 0.7-1.4 0.8-2.2 0.1-0.4 0.3-0.7 0.4-1.1 0.1-0.4 0.2-0.8 0.2-1.2 0-0.5 0.2-1.3-0.1-1.6-0.4-0.4-0.8-0.8-1.2-1.3-0.3-0.4-0.8-1-0.9-1.5-0.1-0.5 0.1-1.2 0.1-1.7-0.1-1 0-2.2-0.4-3.2-0.3-0.6-0.5-1.1-0.5-1.8 0-0.6-0.1-1.1-0.3-1.7-0.3-0.8-0.6-2.5-0.2-3.2 0.3-0.6 0.6-1.1 0.9-1.7 0.3-0.5 0.7-0.8 0.9-1.3 0.4-1.1-0.1-2.2-1-2.9-0.7-0.6-0.9-0.5-1.3 0.3-0.3 0.4-0.3 1.2-0.9 0.8-0.2-0.2-0.1-0.6-0.4-0.8-0.2-0.2-0.5-0.2-0.7-0.2-0.5-0.1-1-0.4-1.5-0.7-0.5-0.3-0.5-0.9-1-1.3-0.5-0.4-0.9 0-1.5-0.1-1-0.3-2.1-1-2.9-1.6-0.4-0.3-1-0.8-1.5-0.9-0.5-0.1-1.1 0.1-1.6 0.1-2.3 0-4-2-5-3.9-0.3-0.5-0.4-1.1-0.7-1.6-0.2-0.5-0.9-0.3-1.3-0.6-0.4-0.3-0.5-1.2-0.8-1.6-0.3-0.4-0.7-0.6-1-1-0.3-0.5-0.5-1-0.8-1.5-0.3-0.4-0.5-0.9-0.7-1.4-0.2-0.6-0.3-1-0.9-1.2-0.6-0.2-0.8 0.2-0.4 0.8 0.3 0.5 0.7 0.9 1.1 1.4 0.4 0.6 0.8 0.7 0.6 1.4-0.1 0.6 0.4 0.9 0.6 1.4 0 0.2 0.5 1.7 0 1.4-1-0.6-1.4-1.8-2-2.7-0.7-1-1.2-2-1.6-3.1-0.2-0.5-0.8-0.9-1-1.4-0.2-0.6-0.5-1.1-0.8-1.7-0.2-0.5-0.7-1-1-1.5-0.2-0.3-0.1-0.9-0.1-1.3 0-1.2 0.1-2.5 0.1-3.8 0-0.6 0-1.3 0-1.9 0-0.3-0.1-0.4-0.2-0.7-0.1-0.3-0.4-0.3-0.5-0.5-1-2-1.6-4.1-2.6-6.1-0.4-0.9-1.1-2-2.2-2.2-1.3-0.2-2.3-0.3-3.6-0.1-0.3 0-1.2 0.5-1.5 0.2-0.6-0.5-0.7 0-1.3 0.2-0.6 0.2-1.2-0.1-1.8-0.3-0.2-0.1-0.4 0.1-0.6 0-0.1 0-0.4-0.5-0.5-0.6 0.6-0.6 1.6-0.4 2.3-0.3 0.7 0.1 0.5 0.2 1-0.3 0.4-0.5 0.2-0.5 0-1.1-0.2-0.7-0.2-1.9 0.3-2.4 0.3-0.3 0.6-0.4 0.7-0.8 0.2-0.6-0.2-0.5 0.6-0.6 0.5-0.1 0.8 0 0.9-0.6 0-0.4 0-0.9 0.4-1.2 0.6-0.4 1.7-0.5 2.4-0.7 0.8-0.3 1.8-1 2.6-0.8 0.3 0 0.6 0.5 0.9 0.6 0.4 0.2 0.7 0.4 1.1 0.6 1 0.6 1.9 1.2 3 1.7 1 0.4 2.1 0.1 3.2 0.4 0.6 0.2 0.9 0.6 1.4 0.9 0.5 0.3 1 0.5 1.5 0.8 1.1 0.6 1.9 0.4 3.1 0.3 0.7 0 1.2 0.1 1.6-0.5 0.3-0.6-0.3-1.1-0.5-1.6-0.2-0.5-0.4-1.2-0.3-1.7 0.1-0.7 0.5-0.6 1.1-0.4 0.7 0.3 0.7 0.7 1.1 1.2 0.3 0.3 0.9 0.6 1.3 0.9 0.7 0.6 2.2 1.1 2.6 2-0.6 0.3-1.3 0.4-1.9 0.8-0.3 0.2 0.3 1.4 0.3 1.7-0.1 0.8-0.7 1.2-1.3 1.7-0.6 0.5-0.8 0.8-0.1 1.4 0.3 0.2 0.6 0.5 0.8 0.8 0.1 0.2 0.7 0.1 0.9 0.2 0.6 0.3 1.3 0.6 1.9 1 0.7 0.4 1.3 0.2 2 0.4 0.7 0.2 1.1 0.8 1.7 1.2 0.3-1 0-2-0.2-3-0.1-0.4-0.6-0.7-0.9-1-0.3-0.4 0-0.8-0.5-1.2-0.5-0.4-0.8-0.4-0.7-1.2 0.1-0.7 0.3-0.8 1-0.9 1.3-0.1 2.2 0 3.3 0.6 0.6 0.3 1 0.2 1.5-0.1 0.5-0.4 0.7 0.1 1 0.5 0.7 1.1 1.3 1.6 2.6 1.9 0.9 0.3 2.2 1 3.1 0.9 0.2 0 0.7-0.3 0.9-0.2 0.2 0.1 0.4 0.5 0.5 0.6 0.4 0.4 0.9 0.7 0.8 1.3-0.1 1-1.6 1.6-2.5 1.6-0.7 0-1.1 0.3-1.7 0.3-0.6 0-0.8 0.5-1.1 0.9 0.4-0.1 0.9-0.2 1.3-0.1 0.8 0.2 0.3 0.3 0.8 0.8 0.5 0.4 0.7-0.1 0.9-0.5 0.2-0.4-0.1-0.4-0.4-0.7 0.3-0.3 0.9-0.4 1.3-0.3 0.3 0.1 0.5 0.1 0.3 0.4-0.1 0.2-0.5 0-0.6 0.2-0.3 0.4 0.6 0.5 0.6 1 0 0.5-0.1 0.7-0.4 1.1-0.6 0.8-1.2 1.5-1.8 2.3-0.5 0.7 0.1 1.8-1 2.3-0.8 0.4-1 1.6-1.2 2.4-0.2 0.7-0.1 2.1-0.5 2.7q-0.9 1.2-1.8 2.4c-0.4 0.5-0.4 0.8-0.5 1.4-0.1 0.5 0.2 0.8 0.5 1.2 0.8 1.1 0.5 2.2-0.4 3.1-0.5 0.5-1-0.4-1-0.8 0-0.5 0.2-1-0.1-1.5-0.3-0.5-0.8-1-1.4-1.1-0.6-0.1-0.8 0.1-1.5 0.3-0.7 0.1-1.2 0.1-1.8 0.4-0.3 0.1-1 0.6-1.3 0.5-0.7-0.2-1.1-0.4-1.6 0.1-0.4 0.4-0.5 1.1-0.7 1.6-0.2 0.6-0.5 0.8-0.4 1.4 0 0.8 0 1 0.5 1.6 0.4 0.4 0.6 1.1 1 1.4 0.6 0.5 1 0.4 1.6 0.2 0.8-0.3 2-1.3 3-0.9 1.5 0.6-0.8 1.9-0.3 2.8 0.7 1.2 2-0.1 3-0.1 1.6 0 1.2 1.6 1 2.6-0.1 0.3-0.1 1.1 0.1 1.5 0.3 0.4 0.9 0.5 1.4 0.7 0.4 0.1 1.1-0.5 1.5-0.6 0.5-0.2 0.9 0.1 1.4 0.2 0.2 0.1 0.5-0.4 0.7-0.5 0.1-0.1 0.2-0.1 0.3-0.2 0.1-0.1 0.2 0.1 0.3 0 0.4-0.2 0.5-0.9 1-1 1.1-0.2 2.4-0.4 3.4-0.9 0.2-0.1 0.5 0.2 0.6 0.4 0.2 0.3 0 0.4-0.2 0.7-0.3 0.4-0.8 0.5-1 1 0.8 0.1 1.5-0.6 2-1.2 0.4-0.5 0.7-0.1 1.2 0.2 0.3 0.2 0.7 0.3 1.1 0.4 0.7 0.2 1.5 1.1 2.1 1.5 0.6 0.5 1.3 1 2 1.5 0.4 0.2 0.8 0.4 1 0.8 0.2 0.3 0.4 0.7 0.7 1 0.7 0.7 1.4 0.7 2.4 0.9 0.9 0.2 1.3 1.2 1.7 1.8 0.4 0.7 0.4 1.4 0.2 2.3 0.6 0.1 1.1 0 1.6 0.1 0.4 0 0.7 0.3 1.1 0.4q1.4 0.5 2.7 0.9c0.5 0.2 0.9 0.2 1.3 0.5 0.2 0.2 1.1 0.5 1.2 0.8 0.3 1 0.7 1.8 1.3 2.7 0.2 0.6 0.5 0.8-0.2 1.7zm-32.9-41.9c0.3 0.2 2.3 0.2 2.2-0.3-0.1-0.3-0.6-0.5-0.9-0.3-0.4 0.2-0.8 0.2-1 0.5-0.1 0-0.2 0.1-0.3 0.1zm-2.5 0.2c0.4 0.1 1.1 0.6 1.5 0.4 0.8-0.3-0.5-0.7-0.8-0.8-0.5-0.3-0.7-0.4-1.3-0.5-1 0.2 0.2 0.9 0.6 0.9zm-2.8-0.1c-0.1 0.3-0.2 0.7-0.3 1-0.1 0.2-0.3 0.3-0.4 0.6 0.7 0.5 1.7-1.5 2-2-0.2-0.7-1.1-0.2-1.3 0.4zm-0.5-1.5c0.7 0 1.3 0.2 1.9 0.2-0.1-0.6-0.2-1.3-0.7-1.7-0.3-0.2-1.3-1-1.6-0.7-0.5 0.6 1.1 0.9 0.5 1.3-0.5 0.3-1.1 0.2-1.7 0.3-0.3 0.6 1.1 0.6 1.6 0.6z"/>
		<path id="Layer" class="s1" d="m365.6 161.2c-0.2 0.3-0.5 1-0.9 1.1-0.7 0.2-0.4-0.7-0.1-1.1 0.2-0.4 0.6-1 1.1-0.9 0.6 0.1 0.3 0.6-0.1 0.9z"/>
		<path id="Layer" class="s1" d="m366 156.9c0.1-0.2 0.4-1 0.8-0.6 0.3 0.3-0.2 0.9-0.4 1.1 0.5 0.3 1.8 0.2 2 0.8 0.1 0.3-0.2 0.9-0.5 1-0.4 0.1-0.6-0.3-0.8-0.6-0.2-0.4-1.6 0.8-2 0.1-0.3-0.5 0.6-1.4 0.9-1.8z"/>
		<path id="Layer" class="s1" d="m358.1 181.3c0.9 0.4 1.9 1 2.8 1 0.4 0 1 0.4 1 0.8 0 0.2-1.2 0.3-1.4 0.2-1-0.2-2-0.6-2.8-1.2-0.4-0.3-0.6-0.5-0.6-1-0.1-0.6 0.7 0.1 1 0.2z"/>
		<path id="Layer" class="s1" d="m365.1 182.9c0.8 0.1 1.8-0.1 2 0.8 0.2 0.7-0.6 0-0.7 0-0.3-0.1-1 0-1.3 0-0.5 0-0.7 0-1.1-0.2-0.2-0.1-0.4-0.6-0.7-0.8-0.5-0.3 0.6-0.4 0.7-0.4 0.6 0.1 0.9 0.1 1.1 0.6z"/>
		<path id="Layer" class="s1" d="m368.3 184c0.4-0.2 0.5-0.2 0.8 0 0.1 0.1 0.5 0.5 0.5 0.6-0.1 0.4-1.2-0.2-1.5-0.4 0.1 0 0.2-0.1 0.2-0.2z"/>
		<path id="Layer" class="s1" d="m348.6 150.3c0.5 0.1 1 0.2 1.2 0.7 0.3 0.5-0.1 1-0.6 0.8-0.5-0.2-1-0.3-1.3-0.8-0.1-0.2-0.2-0.5 0-0.7 0.1-0.1 0.6 0.1 0.7 0z"/>
		<path id="Layer" class="s1" d="m155 154.6l1.7 0.5-0.7 2.8 20.7 5.2 1-2.8 2 0.5-4.1 16.1-1.9-0.3 0.5-3.3-20.5-5.3-0.8 3.1-1.9-0.5z"/>
		<path id="Layer" class="s1" d="m161.6 137.1l-4.8 11.9 1.7 0.9 1.3-2.9 19.9 7.7-0.9 2.7 1.8 0.8 3-8-1.7-0.9-1.3 2.7-13.4-5.2 19-2.6 4.2-8-20.4-11.4 1.5-2.7-1.6-1-4.4 7.8 1.7 1 1.6-2.9 12.8 7.2z"/>
		<path id="Layer" class="s1" d="m256.3 55.3l-0.6-1.9 11.5-3.2 14.6 13.3-1.6-13.8-3 0.7-0.5-1.9 9-1.3 0.4 2.1-3 0.4 2.9 23.1-8.2 1.3-14.1-13.4 3.7 13.6 2.5-0.5 0.5 1.8-7.7 2.4-0.7-1.9 2.7-0.9-5.7-20.7z"/>
		<path id="Layer" fill-rule="evenodd" class="s1" d="m322.6 71.6l-0.3 2c0 0-13.7-1.7-15.7-1.4l-0.3-2.1 2.5-0.1-2.2-5.5-9.7 0.1-2.3 5.3 2.4 0.1 0.3 2.2c0 0-7 0.2-8.1 0.3l-0.1-2.1 2.3-0.3 10.7-23.6 8.3 0.1 9.7 24.6zm-16.9-9.1l-3.5-9.4-4.3 9.4z"/>
		<path id="Layer" class="s1" d="m324.1 54.2c0 0 1.1-5.2 1.2-5.9 0-0.2 17.8 2.8 28.2 7.3l-1.7 5.9-2.5-0.8 0.8-2.1c0 0-5.4-3.4-5.9-3.3 0 0-5.4 19.8-5.4 20 0 0.2 2.9 1.2 2.9 1.2l-0.4 1.9c0 0-14.6-4.6-16.2-4.3l0.4-1.8 3 0.3 5.2-19.9-6.6-0.1-0.7 2.1z"/>
		<path id="Layer" class="s1" d="m357.1 57c0 0 15 6.6 15.2 7 0.2 0.4-0.9 1.9-0.9 1.9l-2.8-1.3-8.8 19.2 2.7 1.6-1.1 1.8c0 0-13.3-6.8-15-6.9l0.6-1.7 3.1 0.8 8.8-19.2-2.6-1.6z"/>
		<path id="Layer" fill-rule="evenodd" class="s1" d="m396.4 94.7c-3.4 5.4-11.2 7.4-17.5 3.9-1.5-0.9-9-7.2-9-7.2 0 0-5-4-3.3-11.5 1.3-5.5 6.3-12.3 18-8.4l10.7 7.7c0 0 6.6 6.8 1.1 15.5zm-7.7-18.1c0 0-1-0.8-1.7-1-0.7-0.2-1.8-0.2-3-0.2-1.2 0-3.2 2.7-3.2 2.7 0 0-4.6 6.7-5.8 8.4-1.2 1.7-1 2.6-1.2 4-0.2 1.4 0.7 2.1 1.2 2.7 0.4 0.6 2.7 1.8 2.7 1.8 3 1.3 5.3-1.9 5.3-1.9 6.4-7.6 7.1-9.7 7.7-12.3 0.7-2.6-2-4.2-2-4.2z"/>
		<path id="Layer" fill-rule="evenodd" class="s1" d="m422 153.5l0.6 2.3-1.7 0.8-7.6-17.4 1.7-0.7 2.3 4.4 3.7-4.2-4.6-8.9-5.7 0.6 1.3 2.3-1.7 1.1-4.5-6.8 1.6-1 1.5 2.1 25.5-3.1 4.4 8.4zm0.5-17l7-8.4-10.8 1.3-0.2-0.1z"/>
		<path id="Layer" class="s1" d="m445.5 156.3l-0.8-3.3 1.9-0.3 4.3 16.6-2 0.5-0.8-3.2-20.4 5.2c0 0 1 7.1 2.8 7.9l2.9-0.1 0.2 2.4-6.2 0.9c0 0-4.1-22.1-5.4-23.6l1.6-0.6 1.3 3z"/>
		<path id="Layer" fill-rule="evenodd" class="s1" d="m187.4 281.6c-4.8 3.8-13 3.5-17.2-1.9-1-1.4-5.2-9.6-5.2-9.6 0 0-2.5-5.4 1.8-11.3 3.1-4.4 10.4-9.2 19.2-1.5l6.1 10.7c0 0 1.8 8.4-4.7 13.6zm0.3-17.6c0 0-0.6-1.1-1.1-1.5-0.6-0.5-1.2-0.7-2.5-1.3-1.1-0.4-4.2 1.2-4.2 1.2 0 0-6.9 4.1-8.6 5.2-1.7 1.1-1.8 1.9-2.5 3.1-0.7 1.2-0.2 2.1 0 2.8 0.2 0.7 1.7 2.2 1.7 2.2 2.2 2.2 5.3 0.3 5.3 0.3 7.2-3.6 11.8-7.1 12.1-7.5 1.5-2-0.2-4.5-0.2-4.5z"/>
		<path id="Layer" class="s1" d="m172.8 219.7l-0.6-3.5 2.1-0.5c0 0 1.8 12.6 2.3 13.2 0.5 0.5-11.1 8.1-11.1 8.1l13.3 1.5 4.5 11.4-1.7 1.2-1.5-3.4-20.1 7 0.9 3.4-1.5 0.6-5.5-16 1.7-0.8 1.3 3.2 13.7-5-17.7-1.9-1.3-4.9 15.1-9.8-14.4 2.5 0.6 2.8-1.9 0.4-1.5-8.8 1.8-0.4 0.5 3z"/>
		<path id="Layer" class="s1" d="m180.4 291.9l-2.1-2.6-1.6 1.2 5.8 7.6 1.6-1.3-2-2.7 11.4-8.8-4.2 20.3 6.6 6.4 16-17 1.8 1.9 1.1-1.8-5.1-5.2-1.4 1.5 1.5 1.9-10.2 10.5 4.4-20.4-6.5-7.7-1.6 1.1 1.6 1.8z"/>
		<path id="Layer" class="s1" d="m218.4 316l-6.3 7.2c0 0 4.3 3.7 8.4 4.8l1.9-2.7 1.9 1.3-3.5 5c0 0-17.8-12.6-20-15.1l1-1.3 2.2 1.8 13.3-16.9-1.8-1.8 1.2-1.7c0 0 10.1 8.9 18.2 13.5l-3.2 5.7-1.9-1.2 1.4-2.7c0 0-3-4.6-5.8-5.7l-5.9 7.5 2.8 2.1 1.3-1.4 1.7 0.9-3.5 5.8-1.4-0.8 1.2-2.4"/>
		<path id="Layer" class="s1" d="m234.3 317.1l3-5.5c0 0 15.9 8.5 24.4 10.8l-1.9 6.1-2.1-0.8 0.6-2.2c0 0-4.8-3.5-5.4-3.8l-8.7 19.4 2.9 1.3-0.6 1.6-15.3-6.6 0.8-1.8 2.9 1.4 8.5-19.5c0 0-4.6-1.4-5.9-0.9l-1.3 1.7z"/>
		<path id="Layer" fill-rule="evenodd" class="s1" d="m265.9 348.3l4.1 0.6-0.9-5.6-11.1-2.9-3.2 4.5 2.2 1-0.8 1.5-7.2-2.7 0.5-1.5 2.6 0.4 15.2-19.7 9 2.3 4.9 24.4 1.7 0.1 0.1 2.1c0 0-16-2.6-17.4-3zm2.9-7.4l-2.3-10.7-6.8 8.1z"/>
		<path id="Layer" fill-rule="evenodd" class="s1" d="m259.6 78.8l-6.5 2.4c0 0-3.5 1-3.9 0.9-0.4-0.2-1.7-0.2-2.2-1-0.5-0.8-3.8-6.7-3.8-6.7 0 0-0.6-0.7-1-0.6-0.4 0.1-1.8 0.5-1.8 0.5l-3.9 1.9 4.6 8.2c0 0-0.1 0.3 0.5 0.1 0.6-0.2 1.7-1 1.7-1l1 1.8-13.4 7.8-1.2-1.4 2.3-1.9-10.4-18.7-2.5 1.6-1.2-1.6c0 0 19.3-11.9 24.1-12.6 5.5-0.8 11.5 7.1 4.8 12.8 0 0 1.2 0.2 2.9-0.1 1.7-0.3 3.3 1.5 3.6 1.8 0.3 0.3 1.6 3.2 1.9 3.5 0.2 0.4 1.2 1.1 1.7 1 0.5 0 1.5-0.3 1.5-0.3l0.6-0.3zm-18.4-8.8c0 0-2.7-5.7-3.4-6.3-0.6-0.6-2.1-0.2-2.1-0.2l-5 2.4 4.7 8.4c0 0 4.4-2 5-2.6 0.6-0.6 0.8-1.7 0.8-1.7z"/>
		<path id="Layer" fill-rule="evenodd" class="s1" d="m318.9 352.3c0 0-10.4 1-11.2 0.7-0.8-0.3-2.4-1.5-2.4-1.9 0-0.4-0.3-7.4-0.3-7.4 0 0-0.9-2-1.4-1.9-0.4 0.1-4.7 0.1-4.7 0.1l-0.4 9.8 2.1-0.1 0.2 1.9c0 0-14.7-0.5-15.1-0.6-0.4-0.1-0.1-2-0.1-2l2.3 0.1 1.2-21.3-2.5-0.3-0.1-2c0 0 15.9 1.5 22.1 0.6 0 0 1.9 0 3 0.3 1 0.3 4.8 2.6 4.8 6.8 0 4.2-5.1 6.8-5.1 6.8 0 0 3.6 3 3.9 6.2 0.1 1.4 0 1.9 0 2 0.1 0 0.2 0.1 0.3 0.2 0.7 0.7 2.8 0.6 2.8 0.6l0.4-0.2zm-13.2-20.8c-0.1-0.6-1.1-1.2-1.1-1.2l-4.8 0.1-0.4 9.6c0 0 4.7 0.1 5.4-0.1 0.7-0.2 0.8-1.2 0.8-1.2 0 0 0.2-6.6 0.1-7.2z"/>
		<path id="Layer" class="s1" d="m316.9 327.4l16.4-3c0 0 0.6 1.5 0.6 1.7 0 0.3-2.1 0.2-2 0.6 0.1 0.5 8.1 6.5 8.1 6.5 0 0 4.6-9.3 4.3-10.4l-1.9 0.6-0.6-1.8 7.4-2.7 1 1.5-2.2 1.2-6 14.2 2.4 9.5 2.8-0.6 0.7 1.7-15.9 4.1-0.8-1.6 3.1-1-2.3-9.3-12.6-9.7-2.3 0.3z"/>
		<path id="Layer" class="s1" d="m362.8 312.4c0 0 16.9-9.8 20-14l4.1 5-1.8 1.6-1.9-2.1c0 0-5.3 1.6-7.8 3.9l5 8.3 3.3-2.5-1.2-2 2-1.4 4.3 5.4-2 1.6-1.6-1.7-3.3 2.5 4.8 7.8 2.5-1.7 1.2 1.8-13.8 9.1-1.4-1.7 2.5-1.6-11.1-18.2-2.9 1.5z"/>
		<path id="Layer" class="s1" d="m385 296.9l10.6-10.8 1.6 1.4-1.6 1.7 11.3 11.9c0 0 2.8 1.6 5.2 0.1 2.4-1.5 4.1-3 3.3-5.9-0.8-2.9-1.2-2.8-2-3.5-0.9-0.7-11.4-10.1-11.4-10.1l-1.8 2.2-1.6-1.5 4.9-6.4 1.4 1.5-1.1 1.8 11.7 10.2c0 0 2.7 4.1 2.5 6.5-0.2 2.4-0.7 3.8-1.1 4.3-0.4 0.5-7.4 7.8-7.4 7.8 0 0-3.6 2.2-5 2.1-1.4-0.1-4.4-1-5.1-1.9-0.8-1-11.5-11.9-11.5-11.9l-1.8 1.6z"/>
		<path id="Layer" class="s1" d="m406.7 275.3l-1.7-1.2 5.2-8.1 20.5-4.2-12.4-6.3-1.4 2.5-1.7-1 3.4-7.2 1.9 0.8-1.2 2.3 21.2 10.1-3.8 8.3-20.5 3.7 11.1 8 1.8-2.9 1.7 1-5.2 7.5-1.5-0.8 1.7-2.8-17.6-12z"/>
		<path id="Layer" fill-rule="evenodd" class="s1" d="m449.8 234.5c-0.2 4.3-6.5 22.1-6.5 22.1l-1.8-0.8 0.9-3.3-19.9-6.9-1.1 2.7-1.6-0.7 5.8-19.5c0 0 4.2-8.4 13.3-6.4 7.9 1.7 11.1 8.5 10.9 12.8zm-3.8 0.7c-2-0.4-17.4-4.7-17.4-4.7 0 0-1.7-0.5-2.1 1-0.5 2-1 4.3-1 4.3 0.2 0.3 20.3 7 20.3 7l1.4-5.1c0 0 0.8-1.9-1.2-2.5z"/>
		<path id="Layer" class="s1" d="m185.5 103.2c2.3-2.5 5.9-4.3 5.9-4.3l1.5 1.3 1.7-1.6-4.4-4.1c-2.1 1.1-18 21.7-18.5 23.5l5.2 3.3 1-1.5-1.8-1.5c0.5-2.8 3-7 3-7l16.5 13-1.5 2.6 1.5 1 5.4-7.4v-4.9z"/>
		<path id="Layer" class="s1" d="m228.2 94.9l-3.9-5.2-1.6 1.3c0 0-0.2-0.1 0.5 0.6 0.7 0.7 0.8 1.5 0.8 1.5-0.1 1.7-5.2 6.4-5.6 6.8-0.4 0.5-0.6 0.2-0.6 0.2 0 0-5.7-6.3-5.9-6.4-0.3-0.2-0.1-0.6-0.1-0.6l2.8-2.3 1.7 1.7 1.2-1.2-4.4-5.5-1.4 1.3 1.4 1.5c0.5 1-3 2.8-3 2.8l-6.3-7c5.2-4.8 10-6.1 10-6.1l1.6 2 1.7-1.4-3.5-4.8c-2 0.7-20.8 17-21.2 18.1l1.4 1.4 2.3-2.2 12.1 13.3h8.2z"/>
		<path id="Layer" class="s1" d="m420.9 104.5l-1.6 1.4 1.8 2.4-8.5 6.3 2-17.6-8.7-8.9-1.4 1.3 2 2.4-12.7 12.8h3.8l5.9-5.8-2.3 19.8v2.3l2.9 3.6 19-13.6 1.8 2.6 1.6-1.6z"/>
	</g>
</svg>