<?xml version="1.0" encoding="utf-8"?>
<!-- Generator: Adobe Illustrator 25.0.1, SVG Export Plug-In . SVG Version: 6.00 Build 0)  -->
<svg version="1.0" id="katman_1" xmlns="http://www.w3.org/2000/svg" xmlns:xlink="http://www.w3.org/1999/xlink" x="0px" y="0px"
	 viewBox="0 0 600 400" style="enable-background:new 0 0 600 400;" xml:space="preserve">
<style type="text/css">
	.st0{fill:#0055B8;}
	.st1{fill-rule:evenodd;clip-rule:evenodd;fill:#0055B8;}
</style>
<g>
	<path class="st0" d="M218.9,118.4c-21.9,21.9-33.9,51-33.9,81.9c0,30.9,12.1,60.1,33.9,81.9c21.9,21.9,51,33.9,81.9,33.9
		c30.9,0,60-12.1,81.9-33.9c21.9-21.9,33.9-51,33.9-81.9c0-31-12.1-60-33.9-81.9c-21.9-21.9-51-33.9-81.9-33.9
		C269.9,84.4,240.8,96.5,218.9,118.4 M221.1,280c-21.3-21.3-33-49.6-33-79.7s11.7-58.4,33-79.7c21.3-21.3,49.6-33,79.7-33
		c30.1,0,58.4,11.7,79.8,33c21.3,21.3,33,49.6,33,79.7s-11.7,58.4-33,79.7c-21.3,21.3-49.6,33-79.8,33
		C270.7,313.1,242.4,301.3,221.1,280"/>
	<polygon class="st0" points="158.4,195.9 161.1,188.2 163.4,195.9 171.1,195.9 164.8,200.7 167.3,208.3 160.9,203.5 153.9,208.5 
		156.8,200.5 150.6,195.9 	"/>
	<polygon class="st0" points="438.2,197.9 440.9,190.2 443.3,197.9 451,197.9 444.6,202.8 447.1,210.3 440.7,205.5 433.8,210.5 
		436.7,202.6 430.5,197.9 	"/>
	<path class="st1" d="M202.2,105.9v20v42.3v38v9.1c0,7.7,1,15.5,3.1,22.9c4.1,14.4,12.3,27.3,23,37.8c9.7,9.6,21.1,17.3,33.1,23.5
		c9.1,4.7,18.7,8.6,28.5,11.8c2.6,0.8,5.2,1.6,7.8,2.3c0.7,0.2,1.3,0.4,2,0.3c5.5-0.9,11-2.3,16.4-3.9c10.6-3.2,20.9-7.4,30.5-12.7
		c11.8-6.5,22.8-14.9,31.6-25.2c10.1-11.9,16.8-26.2,19.5-41.5c1.9-10.3,1.7-20.8,1.8-31.3c0.2-14.1,0.3-28.1,0.4-42.2
		c0.1-13.2,0.2-26.4,0.3-39.6c0-3.8,0.1-7.6,0.1-11.4h-11.4h-29.3h-39.8h-43H238h-27.2H202.2 M335.3,286.9c-0.5,0.2-0.9,0.4-1.4,0.4
		c-0.6,0-1.3-0.1-1.9,0.1c-1.6,0.5-3.1,1.1-4.6,1.9c-1.1,0.5-2.2,1.3-3.4,1.6c-1.4,0.4-2.8,0.8-4.2,1.2c-2.2,0.7-4.5,1.3-6.9,1.2
		c-2.4,0-5.3-0.1-7.5-1.2c-1.1-0.5-2.2-1.1-3.3-1.6c-2.6-1.2-5.2-2.5-7.6-4c-1.2-0.8-2.2-1.8-3-3c-0.4-0.7-0.9-1.4-1.5-1.9
		c-0.7-0.5-1.4-1.4-2.2-1.5c-1-0.1-1.9-0.1-2.9-0.1c-0.3,0-0.6-0.6-0.8-0.8c-0.3-0.4-0.7-0.6-1.1-0.8c-0.4-0.2-0.7-0.4-1-0.7
		c-0.6-0.4-0.5-0.6-1-0.1c0.9,0.9,1.6,1.7,2.3,2.7c0.3,0.4,0,1.2,0.7,1.1c0.7,0,1.6-0.2,2.3-0.1c2.6,0.4,4.1,3.1,5.1,5.3
		c0.5,1.1,0.7,2.7,0.7,4c0,0.6,0.1,1.3,0,1.9c-0.1,0.6-0.5,1.2-0.7,1.7c-0.1,0.2-0.4,1.3-0.6,1.4c-0.7,0.2-1.4,0.4-2.1,0.6
		c-1.2,0.3-2.3-0.2-3.5-0.4c-1.4-0.3-2.3-1.1-3.5-1.9c-0.3-0.2-1.3-0.7-1.5-1.1c-0.4-0.8-0.7-1.5-1.1-2.3c-0.3-0.5-0.2-1.1-0.2-1.7
		c0-0.6-0.3-1.6-0.1-2.1c0.5-1.4,0.9-2.7,2.1-3.7c0.3,0.7,0.5,1.4,0.8,2.1c0.4,0.9,1,1,1.6,0.3c0.6-0.6-0.5-1.2-0.9-1.7
		c-0.3-0.3-0.3-0.5-0.3-0.9c0-0.6,0-0.6-0.4-1c-0.5-0.6-1-1.2-1.6-1.7c-0.4-0.4-1.4-1-1.5-1.5c-0.1-0.5-0.3-2-1-1.1
		c-0.6,0.8-0.1,1.2,0.3,2c-1.2,0-2.5-0.5-3.6-0.8c-1.1-0.3-2.2-0.7-3.3-1.1c-2.2-0.7-4.3-1.7-6.3-2.6c-2.4-1.1-4.7-1.7-7.2-2.4
		c-0.5-0.1-0.8-0.2-1.4-0.2c-0.6,0-1.6-0.4-2.1-0.1c-0.5,0.2-1,0.5-1.5,0.5c-0.7-0.1-1.2-0.1-1.8-0.6c-1.8-1.4-2-4.1-3.4-5.8
		c-1.4-1.8-3-3.9-5-5c-0.8-0.4-2.3-1.3-2.5-2.1c-0.1-0.5-0.4-1.2,0.4-1.2c1,0,1,0.1,1.7,0.8c0.6,0.6,2.1,0.4,2.9,0.9
		c1.1,0.7,2.1,1.3,3.2,2c2.1,1.3,4,2.9,6,4.3c1.9,1.3,4,2.4,6.1,3.2c2.1,0.8,4,2.6,6.3,2.8c1.2,0.1,2.4,0.5,3.5,1.1
		c0.6,0.3,0.9,0.3,1.3-0.1c0.5-0.5,0.7-0.9,0.9-1.5c0.1-0.2,0.3-0.5,0.5-0.7c0.1-0.1-0.3-0.5-0.4-0.6c-0.2-0.2-0.5-1.3-0.4-1.6
		c0.1-0.5,0.7-1.2,0.9-1.6c0.3-0.5,0.8-0.9,1.1-1.3c0.7-0.8,1.5-1.6,2.5-1.9c1.1-0.4,2.2-0.5,3.4-0.6c1-0.1,2.5-0.4,3.4,0
		c0.6,0.3,1.1,0.6,1.7,0.7c0.3,0,1.5-0.2,1.6,0c0.7,1,1.3,1.9,0.8,3.1c-0.5,1.3-0.8,2.4-1.6,3.5c-0.3,0.5-0.5,1.2-1,1.5
		c-0.7,0.4-1.3,0.9-2,1.2c-1.3,0.7-2.6,1-4.1,1.1c-0.7,0-1.4,0-2.1-0.2c-0.4-0.1-1.6-0.2-1.7-0.5c-0.1-0.7,0.6-1.2,1.1-1.7
		c0.5-0.5-0.3-1.4-0.5-1.8c-0.1,0.1-0.4,0.3-0.4,0.4c0,0.2,0,0.6-0.2,0.8c-0.4,0.4-0.8,0.8-1.3,1.3c-0.1,0.1-0.4,0.3-0.4,0.4
		c0,0.2,0.2,0.6,0.1,0.8c-0.2,0.5-0.7,0.8-1,1.2c1,0.5,2.1,0,3.2,0.3c0.5,0.1,1,0.5,1.5,0.5c0.8,0,1.7,0.1,2.5,0.1h1.8
		c0.4,0,0.9-0.5,1.4-0.6c1.2-0.1,2-0.7,3.1-1.2c0.5-0.2,1.1-0.4,1.4-0.8c0.4-0.4,0.8-0.9,1.2-1.3c0.7-0.9,1.4-1.8,2.3-2.6
		c1.8-1.5,3.6-2.9,5.6-4.2c2.1-1.4,4.4-2.4,6.7-3.4c0.9-0.4,2.3-0.3,3.4-0.5c1.2-0.1,2.5-0.2,3.8-0.2c2.2-0.1,4.4-0.4,6.6,0
		c1.4,0.2,2.8,0.2,4.1,0.5c1.3,0.3,2.3,0.5,3.6,0.4c1.2-0.1,2.3,0.1,3.5,0.1c1.1,0,2.3-0.3,3.5-0.4c1-0.1,2.2,0,3.2,0.4
		c0.6,0.2,3.3,1,2,1.8c-1.1,0.6-2.2,0.8-3.4,1.1c-1.1,0.2-2.1,0.9-3,1.5c-1,0.6-1.8,1.4-2.9,1.8c-1.1,0.5-2.2,0.9-3.3,1.3
		c-2.2,0.8-4.4,1.6-6.7,2.1c-1.2,0.3-2.3,0.8-3.5,1.1c-0.5,0.1-1.2,0-1.8,0c-0.7,0-1.1,0.2-1.7,0.5c-0.5,0.2-1.2,0.2-1.7,0.3
		c-0.6,0.1-1.2,0.3-1.8,0.4c-1.2,0.3-2.4,0.4-3.6,0.6c-2.3,0.4-4.7,0.5-7,0.8c-1.2,0.1-2.3,0.1-3.4,0.1c-0.5,0-1-0.1-1.5-0.1
		c-0.6,0-1.1,0.1-1.6,0c-1.3-0.3-1.9,0.5-3.1,0.9c-0.6,0.2-1,0.5-1.5,0.8c-0.5,0.3,1,0.9,1.1,0.9c1.2,0.3,2.5,0.2,3.7,0.2
		c0.6,0,0.9,0.1,1.4-0.2c0.6-0.4,1-0.4,1.7-0.6c2.2-0.4,4.5-0.2,6.7,0c1.4,0.1,2.4,0.2,3.7,0.7c1.1,0.5,2.2,0.9,3.4,1.3
		c2.1,0.8,4.1,1.7,6.2,2.5c1.2,0.5,2.3,0.7,3.6,1c1,0.2,1.8,0.8,2.8,1c2.2,0.6,4.6,1.2,6.9,1.2h2.5c0.8,0,1.6-0.5,2.5-0.4
		c0.6,0.1,1.3,0,1.9,0.2c0.5,0.1,1,0.4,1.4,0.6C335.1,285.9,335.5,285.8,335.3,286.9 M353.2,268.6c-0.3,0.3-0.4,0.7-0.9,0.7h-1.1
		c-0.3,0-0.8,0.6-1,0.8c-1.1,1-2.3,1.9-3.4,2.9c-1.6,1.3-3.1,2.9-4.8,4c-0.9,0.6-1.8,1.3-2.8,1.9c-1,0.6-2.1,1.4-3.2,1.8
		c-2.4,0.8-4.7,1.3-7.3,1.6c-2.2,0.3-4.5,0.1-6.8,0c-1.8-0.1-3.4-0.8-5.2-1.3c-1.8-0.5-3.7-1-5.4-1.7c-1.8-0.7-3.5-1.6-5.3-2.2
		c2.2,0.3,4.4,0.6,6.7,0.6c2.6,0,5.3-0.1,7.9-0.1c1.1,0,2.1-0.1,3.2-0.2c1.2-0.1,2.3-0.4,3.4-0.7c2.3-0.6,4.8-0.8,6.8-2.2
		c-1.1,0-1.8,0.2-2.9,0.6c-0.4,0.1-0.9,0-1.3,0c-0.5,0-1,0.2-1.5,0.2c-0.6,0-1.1-0.5-1.6-0.3c-0.5,0.1-0.9,0.2-1.4,0.3
		c-1.2,0.3-2.5,0.5-3.7,0.8c-1.8,0.4-3.6,0.1-5.4,0.2c-1,0.1-2,0.2-3,0.1c-0.9-0.1-2.3,0.2-3-0.3c1.1-0.4,1.9-0.7,3.1-0.9
		c1.1-0.2,2.2-0.3,3.3-0.6c2.3-0.7,4.7-1.3,6.9-2.3c2.2-0.9,4.5-2,6.9-2.4c1-0.2,2.1-0.1,3-0.1c1.6,0,3.2-0.1,4.9-0.1
		c2.5,0,4.7-1.2,7.1-1.9c1.4-0.4,2.7-0.8,4.2-0.9c0.7,0,1.4,0.1,2.1,0.1c0.4,0,0.5,0,0.9,0.2C352.7,267.3,353.5,268.2,353.2,268.6
		 M339.6,247.1c-11.7,0-23.3-3.6-32.9-10.2c-1.1-0.8-2.2-1.6-3.3-2.4c-0.5-0.4-1.1-0.9-1.6-1.3c-0.3-0.3-0.4-0.6-0.8-0.2
		c-0.3,0.3-0.7,0.6-1,0.9c-2.2,1.8-4.5,3.5-6.9,4.9c-4.9,3-10.3,5.2-15.9,6.6c-19.9,5-41.5-1.1-55.8-15.9
		c-13.8-14.2-19.4-34.9-14.8-54.1c4.5-18.7,18.5-34.4,36.7-40.9c9.9-3.6,20.8-4.4,31.2-2.3c5.7,1.1,11.2,3.1,16.3,5.9
		c2.5,1.4,4.9,2.9,7.2,4.6c1.1,0.8,2.1,1.7,3.2,2.6c0.4,0.3,0.4,0.1,0.8-0.2c0.3-0.2,0.5-0.4,0.8-0.7c0.6-0.5,1.2-1,1.9-1.5
		c17.5-13.3,41.7-15.5,61.3-5.7c17.3,8.7,29.4,26,31.5,45.2c2.2,19.5-5.8,39.3-21,51.7C365.9,242.4,352.9,247.1,339.6,247.1"/>
	<path class="st1" d="M318.8,288c-1.5-0.2-3-0.4-4.5-0.7c-1.6-0.3-3.1-0.9-4.7-1.3c-2.9-0.7-5.5-2.1-8.2-3.2c-2.2-0.9-4.7-1.2-7-1.1
		c0.2,0.7,2.7,1,3.3,1.1c0.9,0.2,1.9,0.9,2.8,1.4c2.1,1.2,4.1,2.4,6.3,3.3c1.1,0.5,2.4,1.3,3.6,1.4c1.2,0.2,2.4,0.3,3.5,0.4
		c1.4,0.1,3.2,0.5,4.6-0.1c1.2-0.5,2.4-0.4,3.6-0.7c0.1,0,0.2-0.4,0.2-0.5C321.1,287.8,320,287.9,318.8,288"/>
	<path class="st1" d="M249.3,264.6c-0.7-0.6-1.3-1.4-2.1-1.7c-0.4,0.6,1.2,1.5,1.6,1.9c0.5,0.5,2.2,2.3,1.9,3.2
		c-0.2-0.4-0.6-0.5-0.7,0c0,0.3,0.2,0.9,0.3,1.1c0.2,0.4,0.3,1,0.5,1.3c0.5,0.6,1.3,0.2,1.5-0.4c0.2-0.9-0.3-2.5-0.8-3.3
		C250.8,265.9,249.9,265.2,249.3,264.6"/>
	<path class="st1" d="M291.1,273c2.2-0.7,4.4-1.4,6.6-2c2.2-0.6,4.5-1,6.8-1.4c2.4-0.5,4.7-0.9,7.2-1c1.2-0.1,2.4-0.2,3.6-0.4
		c1-0.2,1.9-0.8,2.8-1.2c1.3-0.6,2.3-0.8,3.7-1c1-0.2,2.3,0.1,3.2-0.2c0.2-0.1,0.7-0.2,0.7-0.4c0-0.5,0-0.4-0.5-0.4
		c-0.6,0-1.3,0.1-1.9,0.1c-1.1,0.1-2.1,0.3-3.2,0.5c-2.5,0.3-4.9,0.1-7.3,0.4c-2.2,0.3-4.3,0.6-6.4,1.2c-2.7,0.7-5.5,1.3-8.1,2.4
		c-2.6,1.1-5.2,2.3-7.8,3.5C290.6,273.2,290.8,273.1,291.1,273"/>
	<path class="st1" d="M204.2,189c0,32.4,26.4,58.8,58.8,58.8c14.3,0,28.1-5.2,38.8-14.6c12.7-11.2,20-27.3,20-44.2
		c0-16.9-7.3-33-20-44.2c-10.7-9.4-24.5-14.6-38.8-14.6C230.5,130.2,204.2,156.6,204.2,189 M205.7,189c0-31.6,25.7-57.3,57.3-57.3
		c13.9,0,27.3,5.1,37.8,14.2c12.4,10.9,19.5,26.6,19.5,43c0,16.5-7.1,32.1-19.5,43c-10.4,9.2-23.9,14.2-37.8,14.2
		C231.4,246.3,205.7,220.6,205.7,189"/>
	<path class="st0" d="M235.7,149.2c0.7-0.7,1.1-1.1,2.1-1.3c0.3-0.1,0.8,0.2,0.6,0.5c-0.2,0.4-0.5,0.6-0.6,1c-0.3,1-0.5,1.7-1.2,2.5
		c-0.4,0.5,0.2,0.5-0.6,0.8c-0.4,0.1-0.7,0.3-1.1,0.5c-0.3,0.2-0.6,0.4-1,0.4c-0.4,0-0.8-0.5-1.1-0.5c-0.2,0-0.9,0.2-0.9-0.2
		c0-0.5,0.4-0.7,0.7-1.1c0.7-0.7,1.5,0,2.2-0.3C235.6,151.1,235.6,149.8,235.7,149.2"/>
	<path class="st0" d="M231,152.9c0.3,0,0.6,0.2,0.2,0.4C230.9,153.4,230.6,153.1,231,152.9"/>
	<path class="st0" d="M301.2,147.6c-0.9-0.7-1.8-1.3-2.8-1.9c-1-0.6-1.7-1.6-2.6-2.3c-0.5-0.3-0.8-0.8-1.2-1.2
		c-0.4-0.4-1-0.4-1.4-0.8c-1-0.9-1.8-1.3-3.1-1.4c-0.5-0.1-1-0.1-1.5-0.1c-0.8,0-1,0-1.7,0.6c-0.2,0.1-0.6,0-0.8,0
		c-0.1,0-0.3,0.6-0.3,0.7c-0.2,0.5-0.3,1.2-0.6,1.5c-0.3,0.4-0.6,0.9-1.2,0.9c-0.7,0-1.3,0-1.9,0.1c-0.6,0.1-1.2,0.2-1.8,0.2
		c-0.5,0-0.9,0.4-1.4,0.5c-0.6,0.1-1.3,0.3-1.9,0.2c-0.6-0.1-1.2-0.2-1.9-0.2c-0.8,0-0.9-0.1-1.5,0.5c-0.4,0.4-0.8,0.9-1.3,1.2
		c-1.1,0.6-2.1,1.3-3.3,1.7c-0.6,0.2-1.2,0.4-1.6,0.8c-0.8,0.6,0.1,0.6-0.1,1.4c-0.5,0-0.7-0.4-1.1-0.7c-0.2-0.2-0.4-1-0.6-1
		c-0.4,0.1-0.8,0.2-1,0.6c-0.3,0.7-0.4,0.5-1.1,0.4c-1-0.2-1.9,0-2.8,0.1c-0.5,0-1.8-0.5-2.2-0.1c-0.4,0.4-0.7,0.4-1.3,0.4
		c0-0.4,0.1-1.1-0.2-1.4c-0.5-0.5-0.7-0.8-1-1.4c-0.6-1.2-1.3-1.5-2.6-1.5c-0.6,0-0.9,0.1-1.4-0.4c-0.3-0.3-1.3-0.4-1.6-0.1
		c-0.4,0.4-0.7,0.7-1.2,0.9c-0.2,0.1-0.3,0.3-0.6,0.5c-0.2,0.1-0.6,0.1-0.9,0.2c-0.5,0.2-0.8,0.6-1.2,0.7c-0.7,0-1.3,0.1-1.9,0.3
		c-0.5,0.1-1,0.1-1.5,0.1c-0.6,0-0.9,0.5-1.3,1c-0.4,0.5-0.4,0.8-0.4,1.3c0,0.6,0.8,0.5,1.3,0.6c0.3,0,0.5-0.1,0.5,0.2v0.8
		c0,0.6-0.6,0.8-0.6,1.4c0,1,2.5,0.4,2.9,0c0.2-0.2,0.2-0.5,0.3-0.7c0.2-0.2,0.4-0.3,0.7-0.5c0.5-0.3,0.6-1,1-1.5
		c0.5-0.7,1.8-1.6,2.7-1.9c0.3-0.1,1.4-0.2,1.4,0.2c0,0.5-0.2,1.2-0.8,1.5c-0.4,0.2-1.2-0.2-1.5,0.1c-0.4,0.4-0.9,0.2-1.2,0.9
		c-0.2,0.3-0.3,0.4-0.1,0.7c0.1,0.1,0.3,0.6,0.2,0.6c0.5,0,1.1,0.1,1.7-0.1c0.6-0.2,1.1-0.4,1.7-0.4c0.7,0,1.2,0,0.6,0.7
		c-0.6,0.8-2.1,0.3-3,0.6c-0.6,0.2-1.2,0.4-1.8,0.5c-0.6,0.1-1-0.1-1.5,0.3c-0.5,0.4-0.9,0.7-1.3,1.2c-0.4,0.4-1.3-0.3-1.6-0.5
		c-1.2-0.7,0-2.2-0.7-2.9c-0.2-0.2-1.2,0-1.6,0c-0.6,0-1.1-0.1-1.6,0.3c-0.9,0.6-1.9,1.3-3,1.6c-0.5,0.2-1,0.4-1.5,0.6
		c-0.3,0.2-1.3-0.1-1.7-0.2c-0.5,0-0.9,0-1.4,0c-0.9,0-0.8,0.4-1.2,1.2c-0.2,0.4-0.6,0.9-0.9,1.2c-0.5,0.4-0.6,1-1.1,1.4
		c-0.4,0.4-0.9-0.6-1.1-0.7c-0.4-0.2-1.2,0.3-1.6-0.2c-0.4-0.5-0.8-0.6-1.3-0.2c-0.5,0.5-0.8,0.7-1,1.4c-0.1,0.6-0.2,0.8-0.6,1.2
		c-0.4,0.4-1,0.7-0.8,1.2c0.3,0.6,0.3,1,0.3,1.7c0,0.7,1,0.5,1.5,0.5c0.8,0,1.6,0.2,2.4,0.3c0.9,0.1,0.8-0.2,1.3-0.9
		c0.2-0.2,0.5-0.4,0.6-0.6c0.1-0.3-0.2-0.5,0.2-0.5c0.5-0.1,1.3-0.1,1.6,0.2c0.3,0.3,1.1,0.4,1.5,0.2c0.4-0.2,1.3-0.3,1.6,0.1
		c0.4,0.4,0.6,0.9,1,1.3c0.3,0.3-0.1,1.2,0,1.6c0.1,0.5,0.1,0.6,0.5,1c0.2,0.2,0.5,0.6,0.4,1c-0.1,0.6-0.1,0.8-0.6,1.1
		c-0.2,0.1-0.1,0.7-0.1,0.9c0.9-0.1,1.2-0.3,1.9-0.9c0.1,0.3,0.2,0.5,0.2,0.8c0.9-0.9,0.9-1.7,0.9-2.9c0-0.4-0.7-0.7-0.7-1.2v-0.8
		c0-0.5-0.1-0.6,0.4-0.6c1.3,0,1.2,1.7,1.2,2.6c0,1,0,2.1-0.2,3.1c0.6,0,2.2,0,2.4-0.9c0.1-0.3-0.2-0.9-0.2-1.2c0-0.4,0.7-0.2,1-0.2
		c-0.2,0.6-0.3,1-0.3,1.7c0,0.2-0.3,0.2-0.3,0.5c0,0.2,0,0.7,0.2,0.9c0.3,0.4,1.1,0.4,1.5,0.7c0.3,0.2,0.3,0.4,0.4,0.7
		c0.1,0.5,0.3,0.1,0.6,0.2c0.3,0.1,0.9,0.8,0.9,1.1c-0.1,0.4-0.5,1.1-0.9,1.3c-0.3,0.1-1.2-0.2-1.6-0.3c-0.6-0.2-1.2-0.3-1.7-0.8
		c-0.5-0.5-0.6-0.6-1.4-0.9c-0.5-0.2-0.9-0.2-1.5-0.2c-0.2,0-1.5,0.1-1.5-0.1c-0.2-0.5-0.4-1.1-0.8-1.5c-0.6-0.6-2.4-0.4-2.4-1.7
		v-0.8c0-0.1,0.4-0.1,0.5,0c0.3,0.5,0.5,1,0.9,1.4c0.5-0.3,0.3-0.9,0.1-1.3c-0.1-0.2-0.3-0.3-0.5-0.5c-0.4-0.3-0.2-0.2-0.7-0.2
		c-0.4,0,0,0.3-0.5,0c-0.2-0.1-0.4-0.4-0.4-0.6c-0.1-0.4-0.1-0.4-0.5-0.5c-0.3-0.1-0.4-0.4-0.7-0.6c-0.4-0.2-1-0.1-1.4-0.1
		c-0.7,0-1.5-0.1-2.2-0.1c-0.5,0-1,0.1-1.4-0.1c-0.6-0.3-1.2-0.6-1.8-0.9c-0.2-0.1-0.9-0.7-1-0.6c-0.3,0.2-0.6,0.4-1,0.7
		c-1.3,0.9-2.6,1.8-3.9,2.7c-1.8,1.2-3.8,2.3-5.1,4c-1,1.2-2,2.4-3,3.5c-0.5,0.6-0.4,2-0.6,2.8c-0.2,1.3-0.4,2.6-0.6,3.8
		c-0.1,0.6-0.3,1.1-0.5,1.7c-0.1,0.4,0.2,0.9,0.3,1.3c0.4,1.2,0.7,2.4,1.2,3.6c0.3,0.7,0.6,1.3,0.9,2c0.2,0.5,0.1,1.1,0.1,1.6
		c0,0.7,0,0.8,0.6,1.3c0.6,0.6,0.8,0.4,1.6,0.2c0.8-0.2,0.8-0.3,1.5,0.3c0.5,0.5,0.8,0.4,1.5,0.4c0.5,0,3.1-0.2,3.4,0.2
		c0.4,0.4,0.7,0.9,1.2,1.1c0.4,0.2,1.5,0.6,1.7,1c0.2,0.3,0,1.5,0,1.9c0,0.6,0,0.9,0.2,1.4c0.5,1.2,1,2.4,1.5,3.6
		c0.3,0.9,1.2,1.9,1.2,2.9v2c0,0.5-0.5,1.3-0.7,1.8c-0.2,0.5,0.1,0.6,0.3,1.1c0.4,0.7,0.8,1.4,1.2,2.1c0.5,0.8,0.7,1.7,1.1,2.5
		c1,2.4,1.9,4.8,3.1,7.1c0.6,1.1,1.1,2.2,1.7,3.3c0.1,0.3,0.9,0.6,1.2,0.6c0.4-0.1,0.9-0.7,1.3-0.9c1.2-0.6,2.4-1.2,3.5-1.8
		c1-0.5,1-2,1.2-3c0.2-0.6,0.3-0.6,0.8-0.9c1-0.4,1.6-1.2,1.2-2.3c-0.1-0.3-0.4-0.5-0.4-0.7c-0.1-0.4,0-1.1,0-1.5
		c0-1.2,0.6-1.4,1.4-2.2c0.9-0.9,1-1.5,1-2.7v-4.3c0-0.5-1.7-2.1-1.2-2.6c0.7-0.7,1.5-1.5,2.2-2.2c1.9-1.9,3.7-3.6,5.3-5.7
		c0.6-0.8,1.1-2,1.3-3c0.1-0.6,0.2-1.1,0.5-1.6c0.2-0.2,1.1-1.3,0.6-1.5c-1.2-0.4-2.8,0.5-3.7,1.1c-0.4,0.1-1.4,0-1.7-0.2
		c-1.1-0.5-1.1-1.9-1.8-2.7c-0.3-0.3-0.7-1.1-1.1-1.3c-0.2-0.1-0.6,0.1-0.8,0c-0.1-0.1,0-0.9,0-1.1c0-1-0.8-2.2-1-3.2
		c-0.2-0.6-0.4-1-0.8-1.5c-0.3-0.5-0.2-1.1-0.2-1.6v-1.5c0-0.4,0.8-1.1,1.1-0.8c0.6,0.6,0.7,2.4,0.9,3.2c0.3,1.2,0.6,2.3,1.2,3.4
		c0.3,0.6,0.7,0.7,1.3,1.1c0.4,0.3,0.4,0.9,0.4,1.3c0.2,0.8,0.3,1.7,0.6,2.5c0.2,0.7,0.7,0.7,1.4,0.9c0.4,0.1,1.2-0.3,1.7-0.4
		c0.6-0.2,1.1-0.4,1.7-0.5c1-0.3,2-1.2,2.9-1.8c0.6-0.3,0.9-0.4,1.6-0.4c0.4,0,0.9-1,1.1-1.3c0.2-0.4,0.7-0.7,0.9-1.1
		c0.1-0.3,0.6-1.5,0.1-1.5c-0.1,0-0.7,0.1-0.7,0c-0.1-0.4-0.2-0.9-0.5-1.2c-0.5-0.5-1.9-0.4-2.6-0.4c-0.9,0-0.9,0-1.3-0.7
		c-0.3-0.5-0.5-1.1-0.8-1.6c-0.2-0.4-0.2-0.6-0.2-1c0.3,0.2,1,0.3,1.1,0.7c0.2,0.5,0.2,0.9,0.2,1.5c0.5,0,1-0.1,1.5-0.1
		c0.8,0,0.8,0.1,1.3,0.6c0.2,0.2,0.8,0.9,1.1,0.9c0.6,0.1,1.2,0.2,1.8,0.3c1,0.1,1.8-0.3,2.7-0.2c0.7,0.1,0.9,0.1,1.4,0.6
		c0.4,0.4,0.6,0.8,0.8,1.3c0.4,0.7,0.4,0.8,1.2,0.9c0.6,0,0.5,0.1,0.6,0.7c0.1,1.1,0.1,2.3,0.7,3.3c0.6,1,1.2,1.9,1.9,2.8
		c0.7,0.8,1,1.7,1.8,2.5c0.5-0.8,1.3-1.6,1.3-2.6c0-0.4,0.2-0.7,0.5-1c0.4-0.4,0.3-0.7,0.3-1.3c0-1.2,0.3-1.8,1.2-2.6
		c0.7-0.6,1.5-1.2,2.2-1.8c0.7-0.7,1.4-1.1,2.5-1c0.6,0,0.9,0.1,1.2,0.6c0.2,0.4,0,1,0.2,1.3c0.1,0.2,0.2,0.5,0.4,0.5
		c0.2,0.1,0.5,0.1,0.6,0.3c0.2,0.3,0.3,1,0.5,1.4c0.6,1.2,1.2,1.4,2,0.2c0.2,0.9,0.4,2,0.9,2.7c0.6,0.8,0.5,1.9,0.8,2.9
		c0.3,1,0.6,2,1.2,2.8c0.5,0.8,1.1,2,2.1,2.3c0.4,0.1,0.8-0.1,0.6-0.6c-0.1-0.2-0.4-0.2-0.4-0.4c-0.1-0.3-0.1-0.6-0.2-1
		c-0.2-1-0.5-2-1.1-2.8c-0.3-0.4-0.8-0.7-1.3-1c-0.4-0.2-0.5-0.8-0.6-1.2c-0.3-1,0-1.8,0.8-2.5c0.7,0.7,1.7,2.3,2.7,2.5
		c0.7,0.1,0.9-0.6,1.4-1.1c0.2-0.2,0.4-0.2,0.6-0.3c0.4-0.3,0.4-0.4,0.6-0.9c0.4-1.3-0.3-2.6-0.7-3.7c-0.3-0.8-0.3-1.3-0.3-2.1
		c0-0.4,1-1.1,1.3-1.4c0.3,0.3,0.6,0.5,0.3,0.8c-0.3,0.3-0.2,0.7,0.1,1c0.2,0.2,0.8-0.2,1-0.4c0.2-0.2,0-0.9,0-1.1
		c0-0.7,0.6-1.4,1.3-1.5c0.6-0.1,1.3-1.2,1.7-1.6c0.3-0.3,0.6-1.5,0.7-1.9c0.1-0.8,0.3-1.8,0.1-2.6c-0.3-1.6-0.5-3.3-1.7-4.5
		c0.3-0.3,0.8-0.7,0.4-1.1c-0.4-0.4-0.9,0.2-1.3,0.6c-0.1-0.2-0.7-1.1-0.3-1.4c0.2-0.2,0.5-0.3,0.7-0.5c0.4-0.4,0.3-0.3,0.7,0.1
		c0.4,0.4,0.7,0.7,1.1,1c0.5,0.4,0.4,1,0.5,1.7c0.1,0.3,0.3,0.4,0.5,0.6c0.2,0.2,0.3,0,0.5-0.2c0.3-0.3,0.9-0.7,0.9-1.1
		c0-0.4,0.2-1.3-0.1-1.6c-0.6-0.6-0.8-0.8-0.9-1.7c-0.2-1-0.1-2.3,0.7-3c0.6-0.6,0.6-0.5,0.2-1.3c-0.1-0.2-0.4-0.3-0.3-0.5
		c0.2-0.3,0.2-0.5,0.2-0.9c0-1.2,0.6-2,0.2-3.1c-0.4-1-0.9-2.3-1.6-3.1c-0.4-0.4-0.8-0.8-1.2-1.2c-0.3-0.3-1.1-0.7-1.3-1.1
		c-0.1-0.2,0.1-0.6,0-0.8c-0.1-0.2-0.4-0.4-0.6-0.6c-0.3-0.3-1,0.4-1.4,0.4c-0.3,0,0.1-1.5,0.2-1.6c0.1-0.4,0.6-0.9,1.1-1
		c0.7-0.1,1.1-0.1,1.6-0.6c0.4-0.4,0.3-0.9,0.8-1.4c0.6,0.7,0.9,1.3,1.3,2.1c0.1,0.3,0.3,0.5,0.4,0.8c0.1,0.1,0.4,0,0.5,0
		c0.6,0.3,0.4,0.6,1.2,0.6c0.9,0,1.6,0.8,2.5,0.8c0.7,0,0.9,0.2,0.9-0.5C301.7,148.3,301.5,148,301.2,147.6 M246.3,154.8
		c0.4,0,0.3,0.3,0.1,0.5C246.2,155.5,245.9,154.9,246.3,154.8 M249,167.9c-0.6,0.7-2.1-0.7-2.9-0.5c-0.4,0.1-1.2-0.1-1-0.6
		c0.1-0.4,0.3-1.2,0.7-1.4c0.3-0.2,1-0.7,1.3-0.4c0.3,0.2,0.3,0.3,0.4,0.6c0.1,0.3,0.3,0.2,0.6,0.2c0.8,0,0.8,0.1,1.1,0.8
		C249.3,167.2,249.4,167.3,249,167.9 M254.7,167.4c-0.4,0.5-0.5,0.8-0.3,1.5c0.2,0.7,0.3,0.9-0.1,1.6c-0.2,0.4-0.3,1.4-1,1.2
		c-0.6-0.1-0.9,0.3-1.2-0.4c-0.3-0.5,0.1-0.7,0.5-0.7c0.7,0,0.3-0.9,0.3-1.3c-0.1-0.5-0.2-1-0.1-1.5c0.1-0.6,0.4-0.8,1-1
		C254.1,166.5,255,166.6,254.7,167.4"/>
	<path class="st0" d="M232.5,148.6c0.2,0,0.5-0.3,0.7-0.3c0.3,0.1,0.5,0.2,0.8,0.2c0.6,0.2,0.7,0.3,0.8,0.9c0.1,0.4,0.2,0.9-0.2,1.1
		c-0.4,0.2-0.9,0.3-1.3,0.4c-0.4,0.1-1,0-1.4,0.2c-0.5,0.3-0.8,0.4-1.1-0.2c-0.5-0.9,0.3-0.8,0.8-1.2
		C231.9,149.4,232.2,148.9,232.5,148.6"/>
	<path class="st0" d="M247.8,207.7c0.2-0.7,0.1-0.8,0.8-1c0.4-0.1,0.9,0.6,1,0.9c0.5,1.2,0.5,2.1,0.3,3.4c0,0.5-0.6,1-0.8,1.4
		c-0.3,0.5-0.4,0.7-0.6,1.3c-0.2,0.6-0.4,1.1-0.3,1.7c0,0.4,0.6,1.2,0.3,1.4c-0.1,0.1-0.8,1-1.1,0.8c-0.5-0.4-0.9-0.8-1.3-1.2
		c-0.7-0.7-0.4-2.1-0.4-3.1c0-0.6,0.1-1.1-0.1-1.7c-0.2-0.5-0.1-1,0.1-1.5c0.2-0.4,0.3-1.1,0.8-1.4
		C247.1,208.4,247.3,207.9,247.8,207.7"/>
	<path class="st0" d="M269.9,191.9c0.1-0.2,1-1.3,1.1-1.3c0.5,0.2,0.3,1.2,0.2,1.7c0,0.4-0.3,1.5-1,1.2
		C269.7,193.4,269.9,192.3,269.9,191.9"/>
	<path class="st0" d="M279.8,193.8c1,0,1.9-0.1,2.8,0.5c0.8,0.5,1.4,1.3,2.1,2c0.6,0.7,1.4,1.2,2,1.9c0.4,0.4,0,2-0.2,2.6
		c-0.3,0.8-1.5-1.4-1.6-1.7c-0.5-0.9-1.2-1.5-1.7-2.4c-0.2-0.4-1.4-1.7-1.8-1.8c-0.3,0-1,0.1-1.3-0.1
		C279.8,194.7,279.4,194,279.8,193.8"/>
	<path class="st0" d="M287.5,199.4c0.3,0.6,0.5,1.1,0.7,1.7c0.1,0.4,1.4,0.5,1.8,0.5c0.5,0.1,1.2,0.1,1.5,0.5
		c0.4,0.4,0.2,1.4-0.5,1.2c-0.5-0.2-0.7-0.7-1.4-0.7c-0.6,0-1.1-0.2-1.7-0.4c-0.6-0.2-1.2-0.4-0.7-1.1
		C287.6,200.7,287,199.9,287.5,199.4"/>
	<path class="st0" d="M292.4,203.4c0.6,0,0.7,0,1.3,0.3c0.3,0.2,0.9,0.1,1.2,0.1c0.5,0,0.9,0,1.4,0.2c0.6,0.3,0.7,0.4,0.2,0.8
		c-0.4,0.3-2-0.2-2.5-0.4c-0.4-0.1-0.7-0.3-1.2-0.3C292.3,204.1,291.8,203.6,292.4,203.4"/>
	<path class="st0" d="M298.4,204.8c0.2,0,0.9-0.2,1,0.1c0.2,0.5,0.3,0.9-0.3,0.9c-0.5,0-0.6-0.1-1-0.2c-0.5-0.1-0.6,0.2-1,0.3
		c-0.3,0.1-0.7,0-1,0c-0.4,0-0.6-0.7-0.1-0.7C296.7,205.2,297.7,205.3,298.4,204.8"/>
	<path class="st0" d="M288.9,194.5c0.9-0.2,1.7-0.4,2.5-1c0.4-0.3,0.9-0.6,1.2-1c0.4-0.4,0.7-1.1,1.3-0.8c0.2,0.1,1.3,0.6,1.2,0.8
		c-0.2,0.8-0.4,0.5-1,0.9c-0.5,0.3-0.2,0.8,0.1,1.2c0.6,0.7,0.3,0.8-0.1,1.5c-0.2,0.2-0.8,1-0.8,1.3c0,0.6-0.5,0.7-0.6,1.2
		c-0.1,0.6-0.5,0.6-0.9,0.3c-0.4-0.4-0.7-0.6-1.3-0.6c-0.3,0-1.2,0.4-1.5,0.2c-0.2-0.1-0.4-1.2-0.5-1.4c-0.2-0.5-0.4-0.9-0.3-1.4
		C288.2,194.9,288.3,194.6,288.9,194.5"/>
	<path class="st0" d="M298.7,196.2c-1-0.1-2.2-0.1-3.1,0.5c-0.8,0.6-1.2,1.4-1.2,2.5c0,0.4-0.1,1,0.1,1.4c0.1,0.3,0.9,1,1.2,0.9
		c1-0.2-0.8-1.6-0.3-2.4c0.4,0.2,0.4,0.5,0.5,0.8c0.2,0.5,0.4,0.6,0.9,0.7c0.2,0.1,1-0.2,0.8-0.4c-0.3-0.4-0.4-0.5-0.8-0.7
		c-1-0.5,0.8-0.5,1.1-0.7c0.9-0.8-1-0.6-1.4-0.7c0.1-0.6,0.7-0.9,1.3-0.9C298.1,197.1,299.3,196.7,298.7,196.2"/>
	<path class="st0" d="M299.4,193.8c0.3-0.2,1.1,0,1.1,0.4c0,0.3-0.1,0.6-0.1,0.9c0,0.5,0.5,0.1,0.7,0.4c0.3,0.3-0.3,0.9-0.5,1.1
		c-0.3,0.3-1.5-0.4-1.8-0.8C298.4,194.9,299.2,194.4,299.4,193.8"/>
	<path class="st0" d="M297.3,189.2c-0.1-0.5,0.5-1.2,1-1c0.4,0.1,0.5,1,0.2,1.3c-0.4,0.6,0.4,0.8,0.4,1.5c0,0.5,0.6,1.4-0.1,1.5
		c-0.7,0.2-0.8-0.3-1.4-0.6c-0.3-0.1-0.5-0.1-0.8-0.1c-0.1,0-0.3,0.3-0.5,0.3c-0.5,0-0.6-0.8-0.2-1c0.6-0.3,1-0.5,1.5,0
		c0.1-0.3,0.4-0.6,0.3-1C297.7,189.7,297.5,189.6,297.3,189.2"/>
	<path class="st0" d="M296.2,187.2c0.3,0.1,1.2,0.9,0.5,1C296.3,188.3,295.6,187.5,296.2,187.2"/>
	<path class="st0" d="M297.4,186.1c0.1,0.1,0.6,0.7,0.6,0.9c-0.1,0.5-0.6,0.3-0.9,0.3C296.5,187.3,296.7,185.4,297.4,186.1"/>
	<path class="st0" d="M295.4,181.8c0.5,0.1,0.9,0.3,1.1,0.7c0.4,0.5,0,0.7-0.4,1.1c-0.3,0.3,0.2,1.1,0.4,1.3
		c0.1,0.2,0.2,1.2-0.1,1.1c-0.5-0.1-1.1-0.2-1.4-0.6c-0.4-0.4-0.2-0.7,0-1.2C295.2,183.6,294.2,182.1,295.4,181.8"/>
	<path class="st0" d="M296,176.9c0.1-0.5,0-0.7,0.3-1.1c0.3-0.4,0.7,0.2,0.8,0.5c0.2,0.7,0.5,1.4,0.3,2.1c-0.2,0.9-1,1-1.6,0.4
		C295.7,178.7,295.9,177.1,296,176.9"/>
	<path class="st0" d="M302,195.9c-0.9-1.5,0.5-1.4,1.6-1.2c0.6,0.1,0.6,0.5,0.8,0.9c0.1,0.2-0.1,0.4-0.2,0.5
		c-0.3,0.5,0.1,0.6,0.4,0.8c0.9,0.6,2-1,2.9-0.3c0.9,0.7,1.5,1.9,2.4,2.5c0.4,0.3,1,0.5,1.4,0.9c0.2,0.2,0.3,0.5,0.5,0.6
		c0.3,0.2,0.5,0,0.7,0.4c0.6,1,1.1,2.1,1.7,3.2c0.3,0.5,1.5,2.8,0.5,3.1c-0.6,0.2-0.9-1.1-1-1.5c-0.2-0.6-1-0.1-1.5-0.3
		c-0.6-0.3-0.9-1.4-1.6-1.5c-0.8-0.1-1,1.2-1.9,0.6c-0.7-0.4-1-1.2-1.8-1.5c-0.7-0.2-1.7-0.6-1.3-1.5c0.2-0.4,0.2-0.7,0.2-1.1
		c-0.1-0.5-0.1-0.6-0.5-1c-0.5-0.5-1.3-0.9-2-1c-0.3-0.1-0.9-0.1-1.1-0.3c-0.3-0.2-0.5-0.6-0.7-0.9c-0.3-0.2-0.7-0.5-0.2-0.8
		c0.3-0.2,0.7-0.4,1.1-0.3C302.3,196,302.2,196,302,195.9"/>
	<path class="st0" d="M314.8,197.4c0-0.1,0-0.2,0-0.3c0.9,0,2.4,1,2.1,1.9c-0.1,0.3-0.4,0.6-0.8,0.5c-0.4-0.1-0.3-0.4-0.5-0.7
		c-0.1-0.2-0.1-0.7-0.3-0.8C315.1,197.9,314.8,197.8,314.8,197.4"/>
	<path class="st0" d="M314.6,199.6c0-0.2,0-0.3,0-0.5c0.6,0,0.6,0.5,0.6,1c0,0.3,0,0.4-0.2,0.6c-0.1,0.2-0.4,0.2-0.5,0.4
		c-0.3,0.5-1,0.3-0.8-0.4C314,200.2,314.7,200.4,314.6,199.6"/>
	<path class="st0" d="M317,199.7c1-0.3,0.9,1.8,0.3,2.2C316.3,202.4,316.3,200.1,317,199.7"/>
	<path class="st0" d="M317.3,202.7c0.2-0.3,0.4-0.5,0.8-0.5c0,0.5,0,0.8-0.1,1.3c0,0.3-0.2,1.2-0.5,1.4c-0.6,0.3-0.5-0.6-0.6-0.9
		c-0.1-0.4-0.3-0.3-0.2-0.7C316.9,203,317.1,202.8,317.3,202.7"/>
	<path class="st0" d="M300.4,206c0.5,0.1,1,0.2,1.5,0.2c0.6,0,1.2-0.1,1.8-0.1c0.7,0,0.5,0.4,0.5,1c0,0.8-0.4,0.7-0.9,1.2
		c-0.8,1,0.5,2,1,2.6c0.5,0.5,0.7,0.7,1.1,0c0.3-0.6,0.7-0.9,0.9-1.6c0.1-0.5,0.5-0.9,0.6-1.3c0.2-0.5,0.3-1.4,0.8-1.7
		c1.4-0.9,1,2.2,1,2.9c0,0.7,0,0.9,0.3,1.5c0.4,0.6,0.4,1.2,0.2,1.9c-0.3,1,0,2.2,0.3,3.2c0.3,1.2,0.3,2.2,0.2,3.4
		c0,0.6-0.2,1.1-0.4,1.6c-0.2,0.5-0.6,0.8-0.8,1.3c-0.3,0.5-0.6,1.1-0.8,1.6c-0.2,0.5-0.8,0.7-1,1.2c-0.3,0.5-0.5,1-0.8,1.5
		c-0.4,0.6-0.6,0.8-1.2,1.2c-0.9,0.6-1.6,1.5-2.6,2c-0.5,0.3-0.9,0.3-1.4,0.3c-0.6,0-1.2,0.2-1.8,0.2c-0.7,0-0.8,0-1.3-0.4
		c-0.3-0.3-0.4-1.1-0.4-1.5c-0.1-1.1-0.1-2.4,0.1-3.4c-0.5,0.1-0.8,0.7-1.3,0.5c-0.7-0.4-0.5-0.8-0.8-1.4c-0.7-1.1-0.9-2.1-2.3-2.3
		c-2.3-0.3-4.4,0.3-6.7,0.7c-0.2,0-1-0.6-1.2-0.7c-0.4-0.4-0.6-0.9-0.3-1.4c0.2-0.4,0.6-0.9,0.7-1.4c0.1-0.6,0.1-1.2,0.2-1.8
		c0.1-0.5,0.5-0.8,0.7-1.3c0.2-0.6,0.3-1.1,0.6-1.7c0.5-0.9,1.1-1.7,2.2-2.1c1.1-0.4,2.1-0.7,3.1-1.3c0.2-0.1,0.6,0,0.8-0.1
		c0.3,0,0.4-0.2,0.6-0.5c0.3-0.4,0.9-0.7,1.3-1.1c0.9-1,1.8-1.1,3.1-1.3C298.7,207.6,299.4,206.6,300.4,206"/>
	<path class="st0" d="M296.4,231.8c0.5-0.1,0.7-0.2,1,0.2c0.1,0.1,0,0.4,0.1,0.5c0.1,0,0.6-0.1,0.7-0.2c0.3-0.1,0.8-0.6,1.2-0.5
		c0.4,0.1,0.4,0.6,0.2,0.9c-0.3,0.3-0.6,0.6-0.9,0.9c-0.3,0.3-0.4,0.9-0.6,1.1c-0.7,0.5-1.6,0.2-1.5-0.8c-0.7,0.4-1.3-0.1-1.3-0.8
		c0-0.4,0.8-1.2,1.2-1.3"/>
	<path class="st0" d="M239.5,139.6c0.5,0,0.9,0,1.4,0.2c0.6,0.2,0.7,0,1.2-0.4c0.5,0.4,0.2,1-0.2,1.4c-0.7,0.6-1.1,0.7-2,0.7
		c-0.6,0-1.4,0-1.4-0.7C238.6,140.2,239.1,139.9,239.5,139.6"/>
	<path class="st0" d="M294.2,149.6c1.3,0.7,2.5,1.9,3.7,2.8c0.5,0.4,0.5,0.4,0.6,1c0,0.4,0.2,0.6,0.6,0.9c0.3,0.2,1.9,1.3,1.1,1.7
		c-0.3,0.2-1.9-0.4-2.2-0.6c-0.5-0.4-0.5-1.6-0.8-2.2c-0.9-1.4-2.6-2-3.3-3.5C293.9,149.8,294.1,149.7,294.2,149.6"/>
	<path class="st0" d="M302,150c0.2,0.1,1.6,0.8,0.8,0.9c-0.6,0.1-1.2,0.4-1.7-0.2C301.4,150.5,301.7,150.2,302,150"/>
	<path class="st0" d="M302.6,151.8c0.4,0.1,0.4,0.4,0.1,0.6c-0.3,0.2-0.8,0.1-1.1,0c-0.3-0.1-0.3-0.6,0-0.7
		C302,151.6,302.3,151.6,302.6,151.8"/>
	<path class="st0" d="M300,156.6c0.3,0.1,0.8,0.6,1.1,0.6c0.3,0.1,1.5-0.5,1.7,0c0.2,0.5,0.9,0.5,0.1,1c-0.3,0.2-1.1,0.5-1.3,0.9
		c-0.1,0.2-0.2,1.2-0.6,1.1c-0.6-0.2-0.6-1.1-0.8-1.7C300.2,158.1,298.5,156.7,300,156.6"/>
	<path class="st0" d="M302.6,159.3c0.5,0.3,0,0.9,0.2,1.4c0.2,0.4,0.8,0.3,0.8,0.9c0,0.5-0.2,1.2-0.1,1.6c0.1,0.4,0.2,1.2,0.1,1.6
		c0,0.2-0.2,0.4-0.2,0.5c0,0.2,0.2,0.5,0.1,0.6c0,0.1-0.3,0.1-0.4,0.3c-0.1,0.3-0.2,0.5-0.2,0.8c-0.1,0.6-0.6,0.4-1,0.6
		c-0.6,0.4-1.3,0.8-2,0.9c0.2,0.4-0.2,1.3-0.8,1c-0.4-0.3,0-1.2,0.2-1.5c0.3-0.5,0.7-1,1-1.4c0.3-0.5,0.9-0.5,1.4-0.5
		c-0.2-0.5-1.1-0.9-1.1-1.4c0-0.4,1-1,1.2-1.6c0.1-0.6-0.4-1.6-0.1-2.1C302,160.6,301.9,159.3,302.6,159.3"/>
	<path class="st0" d="M301.6,168.8c-0.6-0.2-2.2,0.8-1.6,1.1C300.6,170.1,301.8,169.5,301.6,168.8"/>
	<path class="st0" d="M299.6,170.2c-0.1-0.2-0.2-0.3-0.3-0.5c-0.3,0.3-1.3,1.4-0.9,1.8c0.5,0.5,0.6-0.3,0.7-0.5
		C299.4,170.8,300,170.7,299.6,170.2"/>
	<path class="st0" d="M308.7,141.5c1.2,0,1.8-0.2,2.7-1.1c0.4-0.5,0.6-0.7,1.2-0.9c0.5-0.1,0.9-0.4,1.4-0.6c0.5-0.2,1.2-0.3,1.6-0.6
		c0.5-0.3,0.7-0.6,1.4-0.8c1.1-0.3,2.1,0.1,3.1,0.5c0.7,0.3,2.2,0.4,2.5,1.3c0.2,0.6-0.1,0.9,0.3,1.4c0.3,0.4,0.6,1,0.5,1.5
		c0,0.2-0.2,0.3-0.3,0.5c-0.1,0.3-0.1,0.7-0.2,1c-0.1,0.4-0.7,0.9-1,1.2c-0.4,0.4-0.7,0.6-1.3,0.6c-0.3,0-0.4-1.7-0.5-2
		c-0.3,0.1-0.6,0.2-0.7,0.5c-0.2-0.2-0.4-0.4-0.5-0.6c-0.5,0.3-1,0.6-1.5,0.8c-0.5,0.2-1,0-1.5,0c-1.2-0.1-2.4-0.1-3.5-0.1
		c-0.4,0-1.1-0.1-1.5-0.3c-0.2-0.1-0.6-0.3-0.7-0.1c-0.1,0.3-0.4,0.4-0.7,0.6c-0.3,0.2-1.8,0.1-2.2,0.1c-0.6,0-1.3,0.1-1.9-0.1
		C306.1,143,308,142.9,308.7,141.5"/>
	<path class="st0" d="M315.4,153c0.4,0.1,1,0.3,1.1,0.8c0.1,0.7-0.9,0.4-1.2,0.4c-0.3,0-1.2-0.4-1.1-0.8
		C314.3,152.9,315,153,315.4,153"/>
	<path class="st0" d="M313,154.2c0.5,0,0.7,0.1,1.1,0.4c0.4,0.4-0.3,0.7-0.7,0.7c-0.4,0-1,0-1.3-0.4
		C311.7,154.2,312.5,154.5,313,154.2"/>
	<path class="st0" d="M329.7,161.7c0.6,0.2,0.6,0.3,0.9,0.8c0.2,0.3,0.7,0.9,0.2,1.2c-0.6,0.4-0.8-0.7-1-1
		C329.7,162.4,329.2,162.2,329.7,161.7"/>
	<path class="st0" d="M335.5,144c0.2-0.4,0.2-0.5,0.6-0.5c0.4,0.1,0.5,0,0.8,0.4c0.4,0.6,0.7,1.2,0.3,1.8c-0.5,0.8-0.9,0.6-1.5,0.1
		C335.2,145.5,335.5,144.5,335.5,144"/>
	<path class="st0" d="M340.5,137.4c0.4-0.7,0.9-1.2,1.5-1.7c0.4-0.3,2.1-0.5,1.8,0.3c0,0.1-0.9,0.1-1.2,0.2
		c-0.3,0.1-0.6,0.5-0.8,0.8c-0.2,0.3-0.4,0.5-0.7,0.7C340.9,138,340.2,138,340.5,137.4"/>
	<path class="st0" d="M343,137.2c0.7-0.4,0.9-0.4,1.7-0.3c0.3,0,0.3-1,0.5-1.2c0.3-0.4,0.5-1,1-1.2c0.7-0.3,1.1-0.4,1.8-0.4
		c1.1,0,2.3-0.5,3.2,0.3c0.5,0.4,0.6,0.2,1.2,0.2c0.7-0.1,1-0.1,1.7,0.3c0.5,0.3,1,0.6,1.5,0.9c0.5,0.3,0.9,0.7,1.4,1
		c0.5,0.3,0.9,0.1,1.4,0.3c0.6,0.2,1.1,0.4,1.7,0.8c0.7,0.5,0.5,0.6,0.6,1.4c0.1,0.7,0.4,1.1,0.7,1.7c0.2,0.4,0,0.9,0.2,1.4
		c0.3,0.6,0.6,1.1,0.8,1.7c0.2,0.5,0.4,0.8,0.8,1.2c0.4,0.3,0.8,0.8,0.8,1.3c0,1.4-0.9,1.7-2.1,1.7c-1.1,0-2.1-0.2-3.1-0.7
		c-1.2-0.5-2.1-1.2-3-2.2c-0.4-0.4-0.7-0.8-1.1-1.1c-0.5-0.4-1-0.4-1-1c0-0.2,0.4-1.3-0.1-1.4c-0.6-0.1-1.3-0.2-1.9-0.3
		c-1-0.1-2-0.3-2.9-0.2c-0.5,0-1.3-0.1-1.6,0.3c-0.1,0.1,0,0.5-0.1,0.6c-0.1,0.1-0.7,0.1-0.8,0.1c0.2,1.7,1.9,0.8,3,1.2
		c1.1,0.5,2.2,0.6,3.3,0.9c0.7,0.2,0.8,0.3,1.2,0.8c0.4,0.5,0.7,0.9,1.3,1.1c0.5,0.2,1.1,0.4,1.6,0.6c0.7,0.2,0.8,0.8,0,1
		c-0.4,0.1-1.1,0-1.1,0.5c-0.1,0.6,0.2,1.1,0.2,1.7c0,0.5-0.1,1.1-0.7,1c-0.6-0.1-1.1-0.3-1.7-0.5c-0.8-0.3-3.3,0.6-3.2-0.9
		c0-0.5,0.5-0.9,0.7-1.4c0.2-0.7-0.4-0.7-0.9-1c-0.6-0.4-1.1-0.3-1.8-0.5c-0.7-0.1-1.1-0.6-1.7-1c-0.2-0.2-0.6-0.3-0.7-0.5
		c-0.2-0.3-0.3-0.7-0.5-1c-0.5-0.9-0.7-1-1.7-1c-0.8-0.1-0.8-0.9-1.1-1.5c-0.1-0.3-0.2-0.6-0.3-1c-0.1-0.6-0.1-0.3-0.6-0.4
		c-0.5-0.1-0.4-0.2-0.4-0.7c0-0.3-0.6-0.6-0.5-0.9c0.2-0.8,1.3-0.2,1.3,0.4c0.4-0.1,0.4-0.7,0.4-1
		C342.6,137.8,342.8,137.6,343,137.2"/>
	<path class="st0" d="M365.5,140.2c0.5-0.5,0.9-0.6,1.6-0.2c0.6,0.4,1.3,0.6,1.9,1c0.6,0.5,1,0.9,1.5,1.4c0.3,0.3,0.5,0.5,0,0.8
		c-0.2,0.1-0.6,0.2-0.9,0.2c-0.8-0.1-1.1-0.4-1.7-0.8c-0.4-0.2-0.3-0.5-0.7-0.7c-0.2-0.1-0.7-0.1-0.9,0c-0.7,0.3-1.2,0.3-1.6-0.4
		c-0.1-0.2-0.2-0.8,0-0.9C365.1,140.6,365.4,140.7,365.5,140.2"/>
	<path class="st0" d="M339.5,140.7c0.3-0.6,0.5-1.1,1.2-0.7c0.3,0.2-0.1,1.1-0.1,1.5C340.1,141.4,339.5,141.3,339.5,140.7"/>
	<path class="st0" d="M337.7,142.8c0.2-0.4,0.6-0.8,1-1.2c0.4-0.4,1.2-0.3,1,0.4c-0.1,0.4-0.5,1-0.8,1.3
		C338.4,144,338,143.3,337.7,142.8"/>
	<path class="st0" d="M340.6,142.4c0.7-0.5,1.1,0.2,1.2,0.8c0.1,0.8-0.3,1.2-0.3,1.9c-0.6-0.1-1.1-0.7-1.4-1.1
		c-0.2-0.3,0.2-0.6,0.4-0.7c0.2-0.1,0-0.7-0.1-1H340.6"/>
	<path class="st0" d="M338.4,144.3c0.5-0.4,1-0.4,1.4,0.2c0.3,0.4,0.4,0.4,0.3,0.9c0,0.2,0,0.7,0.1,0.9c0.2,0.3,0.4,0.4,0.7,0.4
		c0.4,0,0.6,0.2,0.7,0.5c0.1,0.3,0.5,0.4,0.6,0.6c0.2,0.4-0.1,0.4-0.4,0.7c-0.5,0.5-1.2,0-1.8-0.2c-0.6-0.1-1.3-0.2-1.7-0.6
		c-0.1-0.1,0.2-1.3,0.1-1.7C338.4,145.4,337.9,144.7,338.4,144.3"/>
	<path class="st0" d="M390.4,203.8c-0.6-0.9-1-1.7-1.3-2.7c-0.1-0.3-1-0.6-1.2-0.8c-0.4-0.3-0.8-0.3-1.3-0.5
		c-0.9-0.3-1.8-0.6-2.7-0.9c-0.4-0.1-0.7-0.4-1.1-0.4c-0.5-0.1-1,0-1.6-0.1c0.2-0.9,0.2-1.6-0.2-2.3c-0.4-0.6-0.8-1.6-1.7-1.8
		c-1-0.2-1.7-0.2-2.4-0.9c-0.3-0.3-0.5-0.7-0.7-1c-0.2-0.4-0.6-0.6-1-0.8c-0.7-0.5-1.4-1-2-1.5c-0.6-0.4-1.4-1.3-2.1-1.5
		c-0.4-0.1-0.8-0.2-1.1-0.4c-0.5-0.3-0.8-0.7-1.2-0.2c-0.5,0.6-1.2,1.3-2,1.2c0.2-0.5,0.7-0.6,1-1c0.2-0.3,0.4-0.4,0.2-0.7
		c-0.1-0.2-0.4-0.5-0.6-0.4c-1,0.5-2.3,0.7-3.4,0.9c-0.5,0.1-0.6,0.8-1,1c-0.1,0.1-0.2-0.1-0.3,0c-0.1,0.1-0.2,0.1-0.3,0.2
		c-0.2,0.1-0.5,0.6-0.7,0.5c-0.5-0.1-0.9-0.4-1.4-0.2c-0.4,0.1-1.1,0.7-1.5,0.6c-0.5-0.2-1.1-0.3-1.4-0.7c-0.2-0.4-0.2-1.2-0.1-1.5
		c0.2-1,0.6-2.6-1-2.6c-1,0-2.3,1.3-3,0.1c-0.5-0.9,1.8-2.2,0.3-2.8c-1-0.4-2.2,0.6-3,0.9c-0.6,0.2-1,0.3-1.6-0.2
		c-0.4-0.3-0.6-1-1-1.4c-0.5-0.6-0.5-0.8-0.5-1.6c-0.1-0.6,0.2-0.8,0.4-1.4c0.2-0.5,0.3-1.2,0.7-1.6c0.5-0.5,0.9-0.3,1.6-0.1
		c0.3,0.1,1-0.4,1.3-0.5c0.6-0.3,1.1-0.3,1.8-0.4c0.7-0.2,0.9-0.4,1.5-0.3c0.6,0.1,1.1,0.6,1.4,1.1c0.3,0.5,0.1,1,0.1,1.5
		c0,0.4,0.5,1.3,1,0.8c0.9-0.9,1.2-2,0.4-3.1c-0.3-0.4-0.6-0.7-0.5-1.2c0.1-0.6,0.1-0.9,0.5-1.4c0.6-0.8,1.2-1.6,1.8-2.4
		c0.4-0.6,0.3-2,0.5-2.7c0.2-0.8,0.4-2,1.2-2.4c1.1-0.5,0.5-1.6,1-2.3c0.6-0.8,1.2-1.5,1.8-2.3c0.3-0.4,0.4-0.6,0.4-1.1
		c0-0.5-0.9-0.6-0.6-1c0.1-0.2,0.5,0,0.6-0.2c0.2-0.3,0-0.3-0.3-0.4c-0.4-0.1-1,0-1.3,0.3c0.3,0.3,0.6,0.3,0.4,0.7
		c-0.2,0.4-0.4,0.9-0.9,0.5c-0.5-0.5,0-0.6-0.8-0.8c-0.4-0.1-0.9,0-1.3,0.1c0.3-0.4,0.5-0.9,1.1-0.9c0.6,0,1-0.3,1.7-0.3
		c0.9,0,2.4-0.6,2.5-1.6c0.1-0.6-0.4-0.9-0.8-1.3c-0.1-0.1-0.3-0.5-0.5-0.6c-0.2-0.1-0.7,0.2-0.9,0.2c-0.9,0.1-2.2-0.6-3.1-0.9
		c-1.3-0.3-1.9-0.8-2.6-1.9c-0.3-0.4-0.5-0.9-1-0.5c-0.5,0.3-0.9,0.4-1.5,0.1c-1.1-0.6-2-0.7-3.3-0.6c-0.7,0.1-0.9,0.2-1,0.9
		c-0.1,0.8,0.2,0.8,0.7,1.2c0.5,0.4,0.2,0.8,0.5,1.2c0.3,0.3,0.8,0.6,0.9,1c0.2,1,0.5,2,0.2,3c-0.6-0.4-1-1-1.7-1.2
		c-0.7-0.2-1.3,0-2-0.4c-0.6-0.4-1.3-0.7-1.9-1c-0.2-0.1-0.8,0-0.9-0.2c-0.2-0.3-0.5-0.6-0.8-0.8c-0.7-0.6-0.5-0.9,0.1-1.4
		c0.6-0.5,1.2-0.9,1.3-1.7c0-0.3-0.6-1.5-0.3-1.7c0.6-0.4,1.3-0.5,1.9-0.8c-0.4-0.9-1.9-1.4-2.6-2c-0.4-0.3-1-0.6-1.3-0.9
		c-0.4-0.5-0.4-0.9-1.1-1.2c-0.6-0.2-1-0.3-1.1,0.4c-0.1,0.5,0.1,1.2,0.3,1.7c0.2,0.5,0.8,1,0.5,1.6c-0.4,0.6-0.9,0.5-1.6,0.5
		c-1.2,0.1-2,0.3-3.1-0.3c-0.5-0.3-1-0.5-1.5-0.8c-0.5-0.3-0.8-0.7-1.4-0.9c-1.1-0.3-2.2,0-3.2-0.4c-1.1-0.5-2-1.1-3-1.7
		c-0.4-0.2-0.7-0.4-1.1-0.6c-0.3-0.1-0.6-0.6-0.9-0.6c-0.8-0.2-1.8,0.5-2.6,0.8c-0.7,0.2-1.8,0.3-2.4,0.7c-0.4,0.3-0.4,0.8-0.4,1.2
		c-0.1,0.6-0.4,0.5-0.9,0.6c-0.8,0.1-0.4,0-0.6,0.6c-0.1,0.4-0.4,0.5-0.7,0.8c-0.5,0.5-0.5,1.7-0.3,2.4c0.2,0.6,0.4,0.6,0,1.1
		c-0.5,0.5-0.3,0.4-1,0.3c-0.7-0.1-1.7-0.3-2.3,0.3c0.1,0.1,0.4,0.6,0.5,0.6c0.2,0.1,0.4-0.1,0.6,0c0.6,0.2,1.2,0.5,1.8,0.3
		c0.6-0.2,0.7-0.7,1.3-0.2c0.3,0.3,1.2-0.2,1.5-0.2c1.3-0.2,2.3-0.1,3.6,0.1c1.1,0.2,1.8,1.3,2.2,2.2c1,2,1.6,4.1,2.6,6.1
		c0.1,0.2,0.4,0.2,0.5,0.5c0.1,0.3,0.2,0.4,0.2,0.7c0,0.6,0,1.3,0,1.9c0,1.3-0.1,2.6-0.1,3.8c0,0.4-0.1,1,0.1,1.3
		c0.3,0.5,0.8,1,1,1.5c0.3,0.6,0.6,1.1,0.8,1.7c0.2,0.5,0.8,0.9,1,1.4c0.4,1.1,0.9,2.1,1.6,3.1c0.6,0.9,1,2.1,2,2.7
		c0.5,0.3,0-1.2,0-1.4c-0.2-0.5-0.7-0.8-0.6-1.4c0.2-0.7-0.2-0.8-0.6-1.4c-0.4-0.5-0.8-0.9-1.1-1.4c-0.4-0.6-0.2-1,0.4-0.8
		c0.6,0.2,0.7,0.6,0.9,1.2c0.2,0.5,0.4,1,0.7,1.4c0.3,0.5,0.5,1,0.8,1.5c0.3,0.4,0.7,0.6,1,1c0.3,0.4,0.4,1.3,0.8,1.6
		c0.4,0.3,1.1,0.1,1.3,0.6c0.3,0.5,0.4,1.1,0.7,1.6c1,1.9,2.7,3.9,5,3.9c0.5,0,1.1-0.2,1.6-0.1c0.5,0.1,1.1,0.6,1.5,0.9
		c0.8,0.6,1.9,1.3,2.9,1.6c0.6,0.1,1-0.3,1.5,0.1c0.5,0.4,0.5,1,1,1.3c0.5,0.3,1,0.6,1.5,0.7c0.2,0,0.5,0,0.7,0.2
		c0.3,0.2,0.2,0.6,0.4,0.8c0.6,0.4,0.6-0.4,0.9-0.8c0.4-0.8,0.6-0.9,1.3-0.3c0.9,0.7,1.4,1.8,1,2.9c-0.2,0.5-0.6,0.8-0.9,1.3
		c-0.3,0.6-0.6,1.1-0.9,1.7c-0.4,0.7-0.1,2.4,0.2,3.2c0.2,0.6,0.3,1.1,0.3,1.7c0,0.7,0.2,1.2,0.5,1.8c0.4,1,0.3,2.2,0.4,3.2
		c0,0.5-0.2,1.2-0.1,1.7c0.1,0.5,0.6,1.1,0.9,1.5c0.4,0.5,0.8,0.9,1.2,1.3c0.3,0.3,0.1,1.1,0.1,1.6c0,0.4-0.1,0.8-0.2,1.2
		c-0.1,0.4-0.3,0.7-0.4,1.1c-0.1,0.8-0.5,1.5-0.8,2.2c-0.1,0.3-0.3,0.7-0.4,1c-0.1,0.3-0.6,0.4-0.7,0.6c-0.1,0.4-0.3,0.8-0.4,1.2
		c-0.1,0.3-0.5,0.6-0.5,0.9c0,0.4-0.1,0.8-0.1,1.1c0,0.6,0,0.4-0.3,0.9c-0.4,0.6-0.8,1.2-1.1,1.8c-0.5,0.7-0.8,1.4-1.2,2.2
		c-0.3,0.7-0.8,1.3-1.3,1.9c0.3,0.1,0.7,0.4,0.5,0.8c-0.1,0.3-0.7,0.5-1,0.6c-0.5,0.3-1.4,0.9-1.5,1.5c-0.2,0.6,0.4,1.8-0.1,2.3
		c-0.6,0.5-1.3,1.2-0.3,1.6c-0.6,0.8-1.1,1.5-0.3,2.4c0.2,0.2,0.8,0.6,0.9,0.9c0.1,0.3,0,0.9,0,1.2c0.4-0.1,0.6-0.4,1-0.2
		c0.2,0.1,0.4,0.3,0.7,0.4c0.1,0.1,0.5,0.1,0.6,0c0.4-0.2,0.2-0.3,0.1-0.6c-0.1-0.3-0.2-0.2-0.1-0.6c0-0.2,0.1-0.5,0-0.7
		c-0.4-1-0.7,0.3-1.1-0.2c0.2-0.2,0.3-0.4,0.5-0.6c0.3-0.3,0.2-0.2,0.6-0.3c0.7-0.2,0.8-0.4,1.1-1.1c0.5-1,1-2,1.6-2.9
		c0.8-1.2,1.4-2,2.5-2.9c0.8-0.7,1.5-1.5,2.4-1.8c1-0.4,2.4-0.7,3.2-1.3c0.9-0.7,1.6-1.6,2.5-2.4c0.9-0.9,2.1-0.9,3-1.7
		c0.4-0.4,1.1-0.5,1.6-0.7c0.6-0.2,1-0.6,1.5-0.9c0.9-0.5,1.7-1.1,2.5-1.7c0.8-0.6,1.5-1.6,2.4-1.9c1-0.4,1.5-0.8,2.3-1.5
		c0.8-0.7,1.8-1.3,2.1-2.4c0.2-0.6,0.4-0.9,0.8-1.4c0.3-0.4,0.2-0.9,0.4-1.3c0.3-1,1.1-1.8,1.8-2.6c0.7-0.9,1.2-1.5,1.7-2.6
		c0.2-0.5,0.4-0.9,0.7-1.3C390.9,204.6,390.6,204.4,390.4,203.8 M357.6,163.5c0.2-0.3,0.6-0.3,1-0.5c0.3-0.2,0.8,0,0.9,0.3
		c0.1,0.5-1.9,0.5-2.2,0.3C357.4,163.6,357.5,163.5,357.6,163.5 M354.2,162.9c0.6,0.1,0.8,0.2,1.3,0.5c0.3,0.1,1.6,0.5,0.8,0.8
		c-0.4,0.2-1.1-0.3-1.5-0.4C354.4,163.8,353.2,163.1,354.2,162.9 M353.3,163.3c-0.3,0.5-1.3,2.5-2,2c0.1-0.3,0.3-0.4,0.4-0.6
		c0.1-0.3,0.2-0.7,0.3-1C352.2,163.1,353.1,162.6,353.3,163.3 M349.9,161.6c0.6-0.1,1.2,0,1.7-0.3c0.6-0.4-1-0.7-0.5-1.3
		c0.3-0.3,1.3,0.5,1.6,0.7c0.5,0.4,0.6,1.1,0.7,1.7c-0.6,0-1.2-0.2-1.9-0.2C351,162.2,349.6,162.2,349.9,161.6"/>
	<path class="st0" d="M365.6,161.2c-0.2,0.3-0.5,1-0.9,1.1c-0.7,0.2-0.4-0.7-0.1-1.1c0.2-0.4,0.6-1,1.1-0.9
		C366.3,160.4,366,160.9,365.6,161.2"/>
	<path class="st0" d="M366,156.9c0.1-0.2,0.4-1,0.8-0.6c0.3,0.3-0.2,0.9-0.4,1.1c0.5,0.3,1.8,0.2,2,0.8c0.1,0.3-0.2,0.9-0.5,1
		c-0.4,0.1-0.6-0.3-0.8-0.6c-0.2-0.4-1.6,0.8-2,0.1C364.8,158.2,365.7,157.3,366,156.9"/>
	<path class="st0" d="M358.1,181.3c0.9,0.4,1.9,1,2.8,1c0.4,0,1,0.4,1,0.8c0,0.2-1.2,0.3-1.4,0.2c-1-0.2-2-0.6-2.8-1.2
		c-0.4-0.3-0.6-0.5-0.6-1C357,180.5,357.8,181.2,358.1,181.3"/>
	<path class="st0" d="M365.1,182.9c0.8,0.1,1.8-0.1,2,0.8c0.2,0.7-0.6,0-0.7,0c-0.3-0.1-1,0-1.3,0c-0.5,0-0.7,0-1.1-0.2
		c-0.2-0.1-0.4-0.6-0.7-0.8c-0.5-0.3,0.6-0.4,0.7-0.4C364.6,182.4,364.9,182.4,365.1,182.9"/>
	<path class="st0" d="M368.3,184c0.4-0.2,0.5-0.2,0.8,0c0.1,0.1,0.5,0.5,0.5,0.6c-0.1,0.4-1.2-0.2-1.5-0.4
		C368.2,184.2,368.3,184.1,368.3,184"/>
	<path class="st0" d="M348.6,150.3c0.5,0.1,1,0.2,1.2,0.7c0.3,0.5-0.1,1-0.6,0.8c-0.5-0.2-1-0.3-1.3-0.8c-0.1-0.2-0.2-0.5,0-0.7
		C348,150.2,348.5,150.4,348.6,150.3"/>
	<polygon class="st0" points="155,154.6 156.7,155.1 156,157.9 176.7,163.1 177.7,160.3 179.7,160.8 175.6,176.9 173.7,176.6 
		174.2,173.3 153.7,168 152.9,171.1 151,170.6 	"/>
	<polygon class="st0" points="161.6,137.1 156.8,149 158.5,149.9 159.8,147 179.7,154.7 178.8,157.4 180.6,158.2 183.6,150.2 
		181.9,149.3 180.6,152 167.2,146.8 186.2,144.2 190.4,136.2 170,124.8 171.5,122.1 169.9,121.1 165.5,128.9 167.2,129.9 168.8,127 
		181.6,134.2 	"/>
	<polygon class="st0" points="256.3,55.3 255.7,53.4 267.2,50.2 281.8,63.5 280.2,49.7 277.2,50.4 276.7,48.5 285.7,47.2 
		286.1,49.3 283.1,49.7 286,72.8 277.8,74.1 263.7,60.7 267.4,74.3 269.9,73.8 270.4,75.6 262.7,78 262,76.1 264.7,75.2 259,54.5 	
		"/>
	<path class="st0" d="M320.1,71.2l-9.7-24.6l-8.3-0.1l-10.7,23.6l-2.3,0.3l0.1,2.1c1.1-0.1,8.1-0.3,8.1-0.3L297,70l-2.4-0.1l2.3-5.3
		l9.7-0.1l2.2,5.5l-2.5,0.1l0.3,2.1c2-0.3,15.7,1.4,15.7,1.4l0.3-2L320.1,71.2z M297.9,62.5l4.3-9.4l3.5,9.4H297.9z"/>
	<path class="st0" d="M324.1,54.2c0,0,1.1-5.2,1.2-5.9c0-0.2,17.8,2.8,28.2,7.3l-1.7,5.9l-2.5-0.8l0.8-2.1c0,0-5.4-3.4-5.9-3.3
		c0,0-5.4,19.8-5.4,20c0,0.2,2.9,1.2,2.9,1.2l-0.4,1.9c0,0-14.6-4.6-16.2-4.3l0.4-1.8l3,0.3l5.2-19.9l-6.6-0.1l-0.7,2.1L324.1,54.2z
		"/>
	<path class="st0" d="M357.1,57c0,0,15,6.6,15.2,7c0.2,0.4-0.9,1.9-0.9,1.9l-2.8-1.3l-8.8,19.2l2.7,1.6l-1.1,1.8
		c0,0-13.3-6.8-15-6.9l0.6-1.7l3.1,0.8l8.8-19.2l-2.6-1.6L357.1,57z"/>
	<path class="st0" d="M395.3,79.2l-10.7-7.7c-11.7-3.9-16.7,2.9-18,8.4c-1.7,7.5,3.3,11.5,3.3,11.5s7.5,6.3,9,7.2
		c6.3,3.5,14.1,1.5,17.5-3.9C401.9,86,395.3,79.2,395.3,79.2 M390.7,80.8c-0.6,2.6-1.3,4.7-7.7,12.3c0,0-2.3,3.2-5.3,1.9
		c0,0-2.3-1.2-2.7-1.8c-0.5-0.6-1.4-1.3-1.2-2.7c0.2-1.4,0-2.3,1.2-4c1.2-1.7,5.8-8.4,5.8-8.4s2-2.7,3.2-2.7c1.2,0,2.3,0,3,0.2
		c0.7,0.2,1.7,1,1.7,1S391.4,78.2,390.7,80.8"/>
	<path class="st0" d="M438.8,133.4l-4.4-8.4l-25.5,3.1l-1.5-2.1l-1.6,1l4.5,6.8l1.7-1.1l-1.3-2.3l5.7-0.6l4.6,8.9l-3.7,4.2l-2.3-4.4
		l-1.7,0.7l7.6,17.4l1.7-0.8l-0.6-2.3L438.8,133.4z M418.5,129.3l0.2,0.1l10.8-1.3l-7,8.4L418.5,129.3z"/>
	<path class="st0" d="M445.5,156.3l-0.8-3.3l1.9-0.3l4.3,16.6l-2,0.5l-0.8-3.2l-20.4,5.2c0,0,1,7.1,2.8,7.9l2.9-0.1l0.2,2.4
		l-6.2,0.9c0,0-4.1-22.1-5.4-23.6l1.6-0.6l1.3,3L445.5,156.3z"/>
	<path class="st0" d="M192.1,268l-6.1-10.7c-8.8-7.7-16.1-2.9-19.2,1.5c-4.3,5.9-1.8,11.3-1.8,11.3s4.2,8.2,5.2,9.6
		c4.2,5.4,12.4,5.7,17.2,1.9C193.9,276.4,192.1,268,192.1,268 M187.9,268.5c-0.3,0.4-4.9,3.9-12.1,7.5c0,0-3.1,1.9-5.3-0.3
		c0,0-1.5-1.5-1.7-2.2c-0.2-0.7-0.7-1.6,0-2.8c0.7-1.2,0.8-2,2.5-3.1c1.7-1.1,8.6-5.2,8.6-5.2s3.1-1.6,4.2-1.2
		c1.3,0.6,1.9,0.8,2.5,1.3c0.5,0.4,1.1,1.5,1.1,1.5S189.4,266.5,187.9,268.5"/>
	<path class="st0" d="M172.8,219.7l-0.6-3.5l2.1-0.5c0,0,1.8,12.6,2.3,13.2c0.5,0.5-11.1,8.1-11.1,8.1l13.3,1.5l4.5,11.4l-1.7,1.2
		l-1.5-3.4l-20.1,7l0.9,3.4l-1.5,0.6l-5.5-16l1.7-0.8l1.3,3.2l13.7-5l-17.7-1.9l-1.3-4.9l15.1-9.8l-14.4,2.5l0.6,2.8l-1.9,0.4
		l-1.5-8.8l1.8-0.4l0.5,3L172.8,219.7z"/>
	<polygon class="st0" points="180.4,291.9 178.3,289.3 176.7,290.5 182.5,298.1 184.1,296.8 182.1,294.1 193.5,285.3 189.3,305.6 
		195.9,312 211.9,295 213.7,296.9 214.8,295.1 209.7,289.9 208.3,291.4 209.8,293.3 199.6,303.8 204,283.4 197.5,275.7 195.9,276.8 
		197.5,278.6 	"/>
	<path class="st0" d="M218.4,316l-6.3,7.2c0,0,4.3,3.7,8.4,4.8l1.9-2.7l1.9,1.3l-3.5,5c0,0-17.8-12.6-20-15.1l1-1.3l2.2,1.8
		l13.3-16.9l-1.8-1.8l1.2-1.7c0,0,10.1,8.9,18.2,13.5l-3.2,5.7l-1.9-1.2l1.4-2.7c0,0-3-4.6-5.8-5.7l-5.9,7.5l2.8,2.1l1.3-1.4
		l1.7,0.9l-3.5,5.8l-1.4-0.8l1.2-2.4"/>
	<path class="st0" d="M234.3,317.1l3-5.5c0,0,15.9,8.5,24.4,10.8l-1.9,6.1l-2.1-0.8l0.6-2.2c0,0-4.8-3.5-5.4-3.8l-8.7,19.4l2.9,1.3
		l-0.6,1.6l-15.3-6.6l0.8-1.8l2.9,1.4l8.5-19.5c0,0-4.6-1.4-5.9-0.9l-1.3,1.7L234.3,317.1z"/>
	<path class="st0" d="M265.6,349.8c1.4,0.4,17.4,3,17.4,3l-0.1-2.1l-1.7-0.1l-4.9-24.4l-9-2.3l-15.2,19.7l-2.6-0.4l-0.5,1.5l7.2,2.7
		l0.8-1.5l-2.2-1l3.2-4.5l11.1,2.9l0.9,5.6l-4.1-0.6L265.6,349.8z M259.7,338.3l6.8-8.1l2.3,10.7L259.7,338.3z"/>
	<path class="st0" d="M259,76.9l-0.6,0.3c0,0-1,0.3-1.5,0.3c-0.5,0.1-1.5-0.6-1.7-1c-0.3-0.3-1.6-3.2-1.9-3.5
		c-0.3-0.3-1.9-2.1-3.6-1.8c-1.7,0.3-2.9,0.1-2.9,0.1c6.7-5.7,0.7-13.6-4.8-12.8c-4.8,0.7-24.1,12.6-24.1,12.6l1.2,1.6l2.5-1.6
		L232,89.8l-2.3,1.9l1.2,1.4l13.4-7.8l-1-1.8c0,0-1.1,0.8-1.7,1c-0.6,0.2-0.5-0.1-0.5-0.1l-4.6-8.2l3.9-1.9c0,0,1.4-0.4,1.8-0.5
		c0.4-0.1,1,0.6,1,0.6s3.3,5.9,3.8,6.7c0.5,0.8,1.8,0.8,2.2,1c0.4,0.1,3.9-0.9,3.9-0.9l6.5-2.4L259,76.9z M240.4,71.7
		c-0.6,0.6-5,2.6-5,2.6l-4.7-8.4l5-2.4c0,0,1.5-0.4,2.1,0.2c0.7,0.6,3.4,6.3,3.4,6.3S241,71.1,240.4,71.7"/>
	<path class="st0" d="M318.7,350.7l-0.4,0.2c0,0-2.1,0.1-2.8-0.6c-0.1-0.1-0.2-0.2-0.3-0.2c0-0.1,0.1-0.6,0-2
		c-0.3-3.2-3.9-6.2-3.9-6.2s5.1-2.6,5.1-6.8c0-4.2-3.8-6.5-4.8-6.8c-1.1-0.3-3-0.3-3-0.3c-6.2,0.9-22.1-0.6-22.1-0.6l0.1,2l2.5,0.3
		l-1.2,21.3l-2.3-0.1c0,0-0.3,1.9,0.1,2c0.4,0.1,15.1,0.6,15.1,0.6l-0.2-1.9l-2.1,0.1l0.4-9.8c0,0,4.3,0,4.7-0.1
		c0.5-0.1,1.4,1.9,1.4,1.9s0.3,7,0.3,7.4s1.6,1.6,2.4,1.9c0.8,0.3,11.2-0.7,11.2-0.7L318.7,350.7z M305.6,338.7c0,0-0.1,1-0.8,1.2
		c-0.7,0.2-5.4,0.1-5.4,0.1l0.4-9.6l4.8-0.1c0,0,1,0.6,1.1,1.2C305.8,332.1,305.6,338.7,305.6,338.7"/>
	<path class="st0" d="M316.9,327.4l16.4-3c0,0,0.6,1.5,0.6,1.7c0,0.3-2.1,0.2-2,0.6c0.1,0.5,8.1,6.5,8.1,6.5s4.6-9.3,4.3-10.4
		l-1.9,0.6l-0.6-1.8l7.4-2.7l1,1.5l-2.2,1.2l-6,14.2l2.4,9.5l2.8-0.6l0.7,1.7l-15.9,4.1l-0.8-1.6l3.1-1l-2.3-9.3l-12.6-9.7l-2.3,0.3
		L316.9,327.4z"/>
	<path class="st0" d="M362.8,312.4c0,0,16.9-9.8,20-14l4.1,5l-1.8,1.6l-1.9-2.1c0,0-5.3,1.6-7.8,3.9l5,8.3l3.3-2.5l-1.2-2l2-1.4
		l4.3,5.4l-2,1.6l-1.6-1.7l-3.3,2.5l4.8,7.8l2.5-1.7l1.2,1.8l-13.8,9.1l-1.4-1.7l2.5-1.6l-11.1-18.2l-2.9,1.5L362.8,312.4z"/>
	<path class="st0" d="M385,296.9l10.6-10.8l1.6,1.4l-1.6,1.7l11.3,11.9c0,0,2.8,1.6,5.2,0.1c2.4-1.5,4.1-3,3.3-5.9
		c-0.8-2.9-1.2-2.8-2-3.5c-0.9-0.7-11.4-10.1-11.4-10.1l-1.8,2.2l-1.6-1.5l4.9-6.4l1.4,1.5l-1.1,1.8l11.7,10.2c0,0,2.7,4.1,2.5,6.5
		c-0.2,2.4-0.7,3.8-1.1,4.3c-0.4,0.5-7.4,7.8-7.4,7.8s-3.6,2.2-5,2.1c-1.4-0.1-4.4-1-5.1-1.9c-0.8-1-11.5-11.9-11.5-11.9l-1.8,1.6
		L385,296.9z"/>
	<polygon class="st0" points="406.7,275.3 405,274.1 410.2,266 430.7,261.8 418.3,255.5 416.9,258 415.2,257 418.6,249.8 
		420.5,250.6 419.3,252.9 440.5,263 436.7,271.3 416.2,275 427.3,283 429.1,280.1 430.8,281.1 425.6,288.6 424.1,287.8 425.8,285 
		408.2,273 	"/>
	<path class="st0" d="M438.9,221.7c-9.1-2-13.3,6.4-13.3,6.4l-5.8,19.5l1.6,0.7l1.1-2.7l19.9,6.9l-0.9,3.3l1.8,0.8
		c0,0,6.3-17.8,6.5-22.1C450,230.2,446.8,223.4,438.9,221.7 M447.2,237.7l-1.4,5.1c0,0-20.1-6.7-20.3-7c0,0,0.5-2.3,1-4.3
		c0.4-1.5,2.1-1,2.1-1s15.4,4.3,17.4,4.7C448,235.8,447.2,237.7,447.2,237.7"/>
	<path class="st0" d="M185.5,103.2c2.3-2.5,5.9-4.3,5.9-4.3l1.5,1.3l1.7-1.6l-4.4-4.1c-2.1,1.1-18,21.7-18.5,23.5l5.2,3.3l1-1.5
		l-1.8-1.5c0.5-2.8,3-7,3-7l16.5,13l-1.5,2.6l1.5,1l5.4-7.4v-4.9L185.5,103.2z"/>
	<path class="st0" d="M228.2,94.9l-3.9-5.2l-1.6,1.3c0,0-0.2-0.1,0.5,0.6c0.7,0.7,0.8,1.5,0.8,1.5c-0.1,1.7-5.2,6.4-5.6,6.8
		c-0.4,0.5-0.6,0.2-0.6,0.2s-5.7-6.3-5.9-6.4c-0.3-0.2-0.1-0.6-0.1-0.6l2.8-2.3l1.7,1.7l1.2-1.2l-4.4-5.5l-1.4,1.3l1.4,1.5
		c0.5,1-3,2.8-3,2.8l-6.3-7c5.2-4.8,10-6.1,10-6.1l1.6,2l1.7-1.4l-3.5-4.8c-2,0.7-20.8,17-21.2,18.1l1.4,1.4l2.3-2.2l12.1,13.3h8.2
		L228.2,94.9z"/>
	<polygon class="st0" points="420.9,104.5 419.3,105.9 421.1,108.3 412.6,114.6 414.6,97 405.9,88.1 404.5,89.4 406.5,91.8 
		393.8,104.6 397.6,104.6 403.5,98.8 401.2,118.6 401.2,120.9 404.1,124.5 423.1,110.9 424.9,113.5 426.5,111.9 	"/>
</g>
</svg>
