{"accessors" : [{"bufferView" : 0, "byteOffset" : 0, "componentType" : 5123, "count" : 5730, "type" : "SCALAR", "max" : [4824], "min" : [0]}, {"bufferView" : 1, "byteOffset" : 0, "componentType" : 5126, "count" : 4825, "type" : "VEC3", "max" : [0.2319979965686798, 1.1708489656448364, 0.5772650241851807], "min" : [-0.2319979965686798, -0.0014779999619349837, -0.6732879877090454], "name" : "POSITION"}, {"bufferView" : 1, "byteOffset" : 12, "componentType" : 5126, "count" : 4825, "type" : "VEC2", "max" : [0.9980469942092896, 0.9936519861221313], "min" : [0.00292899995110929, 0.005859017372131348], "name" : "TEXCOORD_0"}, {"bufferView" : 1, "byteOffset" : 20, "componentType" : 5126, "count" : 4825, "type" : "VEC3", "max" : [0.9991653561592102, 0.999927282333374, 0.9995972514152527], "min" : [-0.9991653561592102, -0.9999644160270691, -0.999472975730896], "name" : "NORMAL"}], "asset" : {"generator" : "Aspose.3D 23.11.1", "version" : "2.0"}, "buffers" : [{"uri" : "data:application/octet-stream;base64,", "byteLength" : 194828}], "bufferViews" : [{"buffer" : 0, "byteOffset" : 0, "byteLength" : 11460, "target" : 34963}, {"buffer" : 0, "byteOffset" : 11464, "byteLength" : 183360, "byteStride" : 32, "target" : 34962}], "meshes" : [{"primitives" : [{"attributes" : {"POSITION" : 1, "TEXCOORD_0" : 2, "NORMAL" : 3}, "indices" : 0, "mode" : 4}], "name" : ""}], "nodes" : [{"mesh" : 0, "name" : ""}], "scene" : 0, "scenes" : [{"nodes" : [0]}]}